<svg width="144" height="186" viewBox="0 0 144 186" fill="none" xmlns="http://www.w3.org/2000/svg">
<circle cx="72" cy="72" r="72" fill="#F1F1F1"/>
<rect x="43.7479" y="70.5256" width="70.5035" height="98.6993" rx="7" transform="rotate(2.5 43.7479 70.5256)" fill="#EEEEEE" stroke="#999999" stroke-width="2"/>
<rect x="1.85654" y="64.6357" width="74.5035" height="102.699" rx="9" transform="rotate(-7.5 1.85654 64.6357)" fill="#FAFAFA" stroke="#999999" stroke-width="2"/>
<path d="M4.02273 73.4281C3.44602 69.0477 6.5296 65.0291 10.9101 64.4524L66.9302 57.0772C71.3106 56.5005 75.3292 59.5841 75.9059 63.9645L77.8848 78.9957L6.00161 88.4593L4.02273 73.4281Z" fill="#EEEEEE"/>
<rect x="90.4946" y="59.0532" width="3.02098" height="10.0699" rx="1.51049" transform="rotate(82.5 90.4946 59.0532)" fill="#999999"/>
<rect x="62.9062" y="42.3716" width="3.02098" height="10.0699" rx="1.51049" transform="rotate(-7.5 62.9062 42.3716)" fill="#999999"/>
<rect x="80.6069" y="45.1196" width="3.02098" height="10.0699" rx="1.51049" transform="rotate(37.5 80.6069 45.1196)" fill="#999999"/>
<rect x="13.5161" y="91.5327" width="58.4056" height="4.02797" rx="2" transform="rotate(-7.5 13.5161 91.5327)" fill="#DCDCDC"/>
<rect x="16.145" y="111.5" width="58.4056" height="4.02797" rx="2" transform="rotate(-7.5 16.145 111.5)" fill="#DCDCDC"/>
<rect x="18.7734" y="131.468" width="58.4056" height="4.02797" rx="2" transform="rotate(-7.5 18.7734 131.468)" fill="#DCDCDC"/>
<rect x="14.5674" y="99.52" width="21.1469" height="4.02797" rx="2" transform="rotate(-7.5 14.5674 99.52)" fill="#EEEEEE"/>
<rect x="17.1963" y="119.487" width="21.1469" height="4.02797" rx="2" transform="rotate(-7.5 17.1963 119.487)" fill="#EEEEEE"/>
<rect x="19.8257" y="139.455" width="21.1469" height="4.02797" rx="2" transform="rotate(-7.5 19.8257 139.455)" fill="#EEEEEE"/>
</svg>
