<svg width="24" height="24" viewBox="0 0 24 24" fill="none" xmlns="http://www.w3.org/2000/svg">
<path d="M10.8 2.3999C10.4817 2.3999 10.1765 2.52633 9.95148 2.75137C9.72643 2.97642 9.60001 3.28164 9.60001 3.5999C9.60001 3.91816 9.72643 4.22339 9.95148 4.44843C10.1765 4.67347 10.4817 4.7999 10.8 4.7999H13.2C13.5183 4.7999 13.8235 4.67347 14.0485 4.44843C14.2736 4.22339 14.4 3.91816 14.4 3.5999C14.4 3.28164 14.2736 2.97642 14.0485 2.75137C13.8235 2.52633 13.5183 2.3999 13.2 2.3999H10.8Z" fill="#1A1A1A"/>
<path fill-rule="evenodd" clip-rule="evenodd" d="M4.79999 6.0001C4.79999 5.36358 5.05284 4.75313 5.50293 4.30304C5.95302 3.85295 6.56347 3.6001 7.19999 3.6001C7.19999 4.55488 7.57927 5.47055 8.2544 6.14568C8.92953 6.82081 9.84521 7.2001 10.8 7.2001H13.2C14.1548 7.2001 15.0704 6.82081 15.7456 6.14568C16.4207 5.47055 16.8 4.55488 16.8 3.6001C17.4365 3.6001 18.047 3.85295 18.497 4.30304C18.9471 4.75313 19.2 5.36358 19.2 6.0001V19.2001C19.2 19.8366 18.9471 20.4471 18.497 20.8972C18.047 21.3472 17.4365 21.6001 16.8 21.6001H7.19999C6.56347 21.6001 5.95302 21.3472 5.50293 20.8972C5.05284 20.4471 4.79999 19.8366 4.79999 19.2001V6.0001ZM8.39999 10.8001C8.08173 10.8001 7.7765 10.9265 7.55146 11.1516C7.32642 11.3766 7.19999 11.6818 7.19999 12.0001C7.19999 12.3184 7.32642 12.6236 7.55146 12.8486C7.7765 13.0737 8.08173 13.2001 8.39999 13.2001H8.41199C8.73025 13.2001 9.03547 13.0737 9.26052 12.8486C9.48556 12.6236 9.61199 12.3184 9.61199 12.0001C9.61199 11.6818 9.48556 11.3766 9.26052 11.1516C9.03547 10.9265 8.73025 10.8001 8.41199 10.8001H8.39999ZM12 10.8001C11.6817 10.8001 11.3765 10.9265 11.1515 11.1516C10.9264 11.3766 10.8 11.6818 10.8 12.0001C10.8 12.3184 10.9264 12.6236 11.1515 12.8486C11.3765 13.0737 11.6817 13.2001 12 13.2001H15.6C15.9182 13.2001 16.2235 13.0737 16.4485 12.8486C16.6736 12.6236 16.8 12.3184 16.8 12.0001C16.8 11.6818 16.6736 11.3766 16.4485 11.1516C16.2235 10.9265 15.9182 10.8001 15.6 10.8001H12ZM8.39999 15.6001C8.08173 15.6001 7.7765 15.7265 7.55146 15.9516C7.32642 16.1766 7.19999 16.4818 7.19999 16.8001C7.19999 17.1184 7.32642 17.4236 7.55146 17.6486C7.7765 17.8737 8.08173 18.0001 8.39999 18.0001H8.41199C8.73025 18.0001 9.03547 17.8737 9.26052 17.6486C9.48556 17.4236 9.61199 17.1184 9.61199 16.8001C9.61199 16.4818 9.48556 16.1766 9.26052 15.9516C9.03547 15.7265 8.73025 15.6001 8.41199 15.6001H8.39999ZM12 15.6001C11.6817 15.6001 11.3765 15.7265 11.1515 15.9516C10.9264 16.1766 10.8 16.4818 10.8 16.8001C10.8 17.1184 10.9264 17.4236 11.1515 17.6486C11.3765 17.8737 11.6817 18.0001 12 18.0001H15.6C15.9182 18.0001 16.2235 17.8737 16.4485 17.6486C16.6736 17.4236 16.8 17.1184 16.8 16.8001C16.8 16.4818 16.6736 16.1766 16.4485 15.9516C16.2235 15.7265 15.9182 15.6001 15.6 15.6001H12Z" fill="#1A1A1A"/>
</svg>
