<svg width="15" height="16" viewBox="0 0 15 16" fill="none" xmlns="http://www.w3.org/2000/svg">
<path fill-rule="evenodd" clip-rule="evenodd" d="M0.875977 15C0.875977 14.7348 0.982102 14.4804 1.17101 14.2929C1.35991 14.1054 1.61612 14 1.88328 14H13.9709C14.238 14 14.4942 14.1054 14.6831 14.2929C14.872 14.4804 14.9782 14.7348 14.9782 15C14.9782 15.2652 14.872 15.5196 14.6831 15.7071C14.4942 15.8946 14.238 16 13.9709 16H1.88328C1.61612 16 1.35991 15.8946 1.17101 15.7071C0.982102 15.5196 0.875977 15.2652 0.875977 15ZM4.19301 7.293C4.38191 7.10553 4.63807 7.00021 4.90517 7.00021C5.17227 7.00021 5.42844 7.10553 5.61733 7.293L6.91977 8.586V1C6.91977 0.734784 7.0259 0.48043 7.2148 0.292893C7.40371 0.105357 7.65992 0 7.92707 0C8.19422 0 8.45043 0.105357 8.63934 0.292893C8.82825 0.48043 8.93437 0.734784 8.93437 1V8.586L10.2368 7.293C10.3297 7.19749 10.4409 7.12131 10.5638 7.0689C10.6867 7.01649 10.8188 6.9889 10.9526 6.98775C11.0863 6.9866 11.219 7.0119 11.3428 7.06218C11.4666 7.11246 11.579 7.18671 11.6736 7.28061C11.7682 7.3745 11.843 7.48615 11.8936 7.60905C11.9443 7.73194 11.9698 7.86362 11.9686 7.9964C11.9674 8.12918 11.9397 8.2604 11.8869 8.3824C11.8341 8.50441 11.7573 8.61475 11.6611 8.707L8.63923 11.707C8.45034 11.8945 8.19417 11.9998 7.92707 11.9998C7.65997 11.9998 7.40381 11.8945 7.21491 11.707L4.19301 8.707C4.00417 8.51947 3.89809 8.26516 3.89809 8C3.89809 7.73484 4.00417 7.48053 4.19301 7.293Z" fill="white"/>
</svg>
