<svg width="344" height="200" viewBox="0 0 344 200" fill="none" xmlns="http://www.w3.org/2000/svg">
<path fill-rule="evenodd" clip-rule="evenodd" d="M217.569 119.2C222.661 119.2 227.545 117.177 231.146 113.576C234.746 109.976 236.769 105.092 236.769 99.9998C236.769 94.9076 234.746 90.0241 231.146 86.4234C227.545 82.8227 222.661 80.7998 217.569 80.7998C212.477 80.7998 207.593 82.8227 203.993 86.4234C200.392 90.0241 198.369 94.9076 198.369 99.9998C198.369 105.092 200.392 109.976 203.993 113.576C207.593 117.177 212.477 119.2 217.569 119.2ZM216.501 93.203C216.14 92.9619 215.72 92.8234 215.286 92.8023C214.852 92.7812 214.42 92.8783 214.037 93.0833C213.654 93.2883 213.334 93.5934 213.11 93.9662C212.887 94.3389 212.769 94.7653 212.769 95.1998V104.8C212.769 105.234 212.887 105.661 213.11 106.033C213.334 106.406 213.654 106.711 214.037 106.916C214.42 107.121 214.852 107.218 215.286 107.197C215.72 107.176 216.14 107.038 216.501 106.797L223.701 101.997C224.03 101.777 224.299 101.48 224.486 101.132C224.672 100.784 224.77 100.395 224.77 99.9998C224.77 99.6047 224.672 99.2158 224.486 98.8674C224.299 98.5191 224.03 98.2222 223.701 98.003L216.501 93.203Z" fill="#161616"/>
<g clip-path="url(#clip0)">
<path d="M290.566 112.559C288.756 112.559 287.373 111.175 287.373 109.366V90.6342C287.373 88.8248 288.757 87.4414 290.566 87.4414C292.375 87.4414 293.759 88.825 293.759 90.6342V109.366C293.759 111.175 292.375 112.559 290.566 112.559Z" fill="#4655C2"/>
<path d="M280.667 122.457C278.858 122.457 277.475 121.074 277.475 119.265V80.7368C277.475 78.9274 278.858 77.5439 280.667 77.5439C282.477 77.5439 283.86 78.9276 283.86 80.7368V119.265C283.86 121.074 282.477 122.457 280.667 122.457Z" fill="#4655C2"/>
<path d="M270.664 131.716C268.854 131.716 267.471 130.333 267.471 128.524V71.477C267.471 69.6676 268.854 68.2842 270.664 68.2842C272.473 68.2842 273.856 69.6678 273.856 71.477V128.524C273.857 130.333 272.473 131.716 270.664 131.716Z" fill="#4655C2"/>
<path d="M260.765 122.457C258.956 122.457 257.572 121.074 257.572 119.265V80.7368C257.572 78.9274 258.956 77.5439 260.765 77.5439C262.574 77.5439 263.958 78.9276 263.958 80.7368V119.265C263.958 121.074 262.574 122.457 260.765 122.457Z" fill="#4655C2"/>
<path d="M250.761 113.198C248.952 113.198 247.568 111.814 247.568 110.005V89.9965C247.568 88.1871 248.952 86.8037 250.761 86.8037C252.57 86.8037 253.954 88.1873 253.954 89.9965V110.005C253.954 111.814 252.571 113.198 250.761 113.198Z" fill="#4655C2"/>
<path d="M320.472 131.716C318.663 131.716 317.279 130.333 317.279 128.524V71.477C317.279 69.6676 318.663 68.2842 320.472 68.2842C322.281 68.2842 323.665 69.6678 323.665 71.477V128.524C323.665 130.333 322.281 131.716 320.472 131.716Z" fill="#003399"/>
<path d="M310.468 122.457C308.659 122.457 307.275 121.074 307.275 119.265V80.7368C307.275 78.9274 308.659 77.5439 310.468 77.5439C312.277 77.5439 313.661 78.9276 313.661 80.7368V119.265C313.661 121.074 312.278 122.457 310.468 122.457Z" fill="#003399"/>
<path d="M300.57 117.455C298.76 117.455 297.377 116.071 297.377 114.262V85.7387C297.377 83.9293 298.761 82.5459 300.57 82.5459C302.379 82.5459 303.763 83.9295 303.763 85.7387V114.262C303.763 116.071 302.379 117.455 300.57 117.455Z" fill="#003399"/>
<path d="M330.371 122.457C328.561 122.457 327.178 121.074 327.178 119.265V80.7368C327.178 78.9274 328.561 77.5439 330.371 77.5439C332.18 77.5439 333.563 78.9276 333.563 80.7368V119.265C333.564 121.074 332.18 122.457 330.371 122.457Z" fill="#003399"/>
<path d="M340.374 113.198C338.565 113.198 337.182 111.814 337.182 110.005V89.9965C337.182 88.1871 338.565 86.8037 340.374 86.8037C342.184 86.8037 343.567 88.1873 343.567 89.9965V110.005C343.567 111.814 342.184 113.198 340.374 113.198Z" fill="#003399"/>
</g>
<path d="M160.576 122.72L159.057 121.079C157.753 119.67 155.943 118.836 154.025 118.762C152.106 118.688 150.237 119.378 148.828 120.682L143.112 125.971C142.222 126.796 141.695 127.94 141.648 129.153C141.601 130.366 142.037 131.548 142.862 132.439L147.997 137.988C148.821 138.879 149.965 139.405 151.178 139.452C152.391 139.499 153.573 139.063 154.464 138.238L160.179 132.949C161.588 131.646 162.422 129.835 162.496 127.917C162.571 125.999 161.88 124.13 160.576 122.72Z" fill="#B26C50"/>
<path d="M164.188 134.045C164.093 133.148 163.646 132.325 162.945 131.758C162.244 131.191 161.346 130.925 160.45 131.02L151.043 132.012C150.844 132.033 150.661 132.132 150.535 132.288C150.409 132.443 150.35 132.643 150.371 132.842L150.927 138.107C150.948 138.307 151.047 138.489 151.203 138.615C151.358 138.741 151.558 138.8 151.757 138.779L161.163 137.787C162.06 137.693 162.883 137.246 163.45 136.545C164.017 135.844 164.283 134.946 164.188 134.049L164.188 134.045Z" fill="#B26C50"/>
<path d="M157.898 130.107L169.568 119.814" stroke="#B26C50" stroke-width="4.92342" stroke-linecap="round" stroke-linejoin="round"/>
<path d="M113.58 64.5005C108.092 64.5005 103.643 60.0515 103.643 54.5632C103.643 49.075 108.092 44.626 113.58 44.626C119.069 44.626 123.518 49.075 123.518 54.5632C123.518 60.0515 119.069 64.5005 113.58 64.5005Z" fill="#182844"/>
<path d="M113.795 62.6021C108.307 62.6021 103.858 58.153 103.858 52.6648C103.858 47.1766 108.307 42.7275 113.795 42.7275C119.283 42.7275 123.732 47.1766 123.732 52.6648C123.732 58.153 119.283 62.6021 113.795 62.6021Z" fill="#182844"/>
<path d="M9.9377 71.8218C4.4495 71.8218 0.000452042 67.3727 0.000452042 61.8845C0.000452042 56.3963 4.4495 51.9473 9.9377 51.9473C15.4259 51.9473 19.875 56.3963 19.875 61.8845C19.875 67.3727 15.4259 71.8218 9.9377 71.8218Z" fill="#182844"/>
<path d="M9.9377 81.7632C4.4495 81.7632 0.000452042 77.3141 0.000452042 71.8259C0.000452042 66.3377 4.4495 61.8887 9.9377 61.8887C15.4259 61.8887 19.875 66.3377 19.875 71.8259C19.875 77.3141 15.4259 81.7632 9.9377 81.7632Z" fill="#182844"/>
<path d="M21.5217 95.9155C16.0335 95.9155 11.5844 91.4665 11.5844 85.9783C11.5844 80.4901 16.0335 76.041 21.5217 76.041C27.0099 76.041 31.459 80.4901 31.459 85.9783C31.459 91.4665 27.0099 95.9155 21.5217 95.9155Z" fill="#182844"/>
<path d="M104.793 91.7017C99.305 91.7017 94.8559 87.2526 94.8559 81.7644C94.8559 76.2762 99.305 71.8271 104.793 71.8271C110.281 71.8271 114.73 76.2762 114.73 81.7644C114.73 87.2526 110.281 91.7017 104.793 91.7017Z" fill="#182844"/>
<path d="M111.393 78.1773C105.905 78.1773 101.456 73.7282 101.456 68.24C101.456 62.7518 105.905 58.3027 111.393 58.3027C116.881 58.3027 121.33 62.7518 121.33 68.24C121.33 73.7282 116.881 78.1773 111.393 78.1773Z" fill="#182844"/>
<path d="M9.93609 62.7274C9.93609 91.8831 33.5743 95.9149 62.7299 95.9149C91.8855 95.9149 115.52 91.8831 115.52 62.7274C115.396 48.807 109.78 35.4986 99.8933 25.6987C90.0063 15.8987 76.6488 10.4004 62.7278 10.4004C48.8069 10.4004 35.4494 15.8987 25.5624 25.6987C15.6754 35.4986 10.0592 48.807 9.93609 62.7274Z" fill="#182844"/>
<path d="M105.582 37.3032C100.094 37.3032 95.645 32.8542 95.645 27.366C95.645 21.8778 100.094 17.4287 105.582 17.4287C111.07 17.4287 115.52 21.8778 115.52 27.366C115.52 32.8542 111.07 37.3032 105.582 37.3032Z" fill="#182844"/>
<path d="M93.2463 32.2144C87.7581 32.2144 83.309 27.7653 83.309 22.2771C83.309 16.7889 87.7581 12.3398 93.2463 12.3398C98.7345 12.3398 103.184 16.7889 103.184 22.2771C103.184 27.7653 98.7345 32.2144 93.2463 32.2144Z" fill="#182844"/>
<path d="M83.4592 22.2759C77.971 22.2759 73.522 17.8268 73.522 12.3386C73.522 6.85043 77.971 2.40137 83.4592 2.40137C88.9474 2.40137 93.3965 6.85043 93.3965 12.3386C93.3965 17.8268 88.9474 22.2759 83.4592 22.2759Z" fill="#182844"/>
<path d="M73.5237 19.8745C68.0355 19.8745 63.5864 15.4255 63.5864 9.93727C63.5864 4.44907 68.0355 0 73.5237 0C79.0119 0 83.4609 4.44907 83.4609 9.93727C83.4609 15.4255 79.0119 19.8745 73.5237 19.8745Z" fill="#182844"/>
<path d="M60.9514 19.8745C55.4632 19.8745 51.0141 15.4255 51.0141 9.93727C51.0141 4.44907 55.4632 0 60.9514 0C66.4396 0 70.8887 4.44907 70.8887 9.93727C70.8887 15.4255 66.4396 19.8745 60.9514 19.8745Z" fill="#182844"/>
<path d="M47.2385 22.2759C41.7503 22.2759 37.3013 17.8268 37.3013 12.3386C37.3013 6.85043 41.7503 2.40137 47.2385 2.40137C52.7267 2.40137 57.1758 6.85043 57.1758 12.3386C57.1758 17.8268 52.7267 22.2759 47.2385 22.2759Z" fill="#182844"/>
<path d="M31.4592 25.7642C25.971 25.7642 21.522 21.3151 21.522 15.8269C21.522 10.3387 25.971 5.88965 31.4592 5.88965C36.9474 5.88965 41.3965 10.3387 41.3965 15.8269C41.3965 21.3151 36.9474 25.7642 31.4592 25.7642Z" fill="#182844"/>
<path d="M25.6584 34.0122C20.1702 34.0122 15.7212 29.5632 15.7212 24.075C15.7212 18.5868 20.1702 14.1377 25.6584 14.1377C31.1466 14.1377 35.5957 18.5868 35.5957 24.075C35.5957 29.5632 31.1466 34.0122 25.6584 34.0122Z" fill="#182844"/>
<path d="M17.4846 43.9546C11.9964 43.9546 7.54738 39.5055 7.54738 34.0173C7.54738 28.5291 11.9964 24.0801 17.4846 24.0801C22.9728 24.0801 27.4219 28.5291 27.4219 34.0173C27.4219 39.5055 22.9728 43.9546 17.4846 43.9546Z" fill="#182844"/>
<path d="M15.7229 50.6851C10.2347 50.6851 5.78566 46.236 5.78566 40.7478C5.78566 35.2596 10.2347 30.8105 15.7229 30.8105C21.2111 30.8105 25.6602 35.2596 25.6602 40.7478C25.6602 46.236 21.2111 50.6851 15.7229 50.6851Z" fill="#182844"/>
<path d="M12.3245 60.8374C6.83627 60.8374 2.38722 56.3884 2.38722 50.9002C2.38722 45.412 6.83627 40.9629 12.3245 40.9629C17.8127 40.9629 22.2617 45.412 22.2617 50.9002C22.2617 56.3884 17.8127 60.8374 12.3245 60.8374Z" fill="#182844"/>
<path d="M104.238 81.063C99.0074 81.063 94.7671 76.8227 94.7671 71.592C94.7671 66.3614 99.0074 62.1211 104.238 62.1211C109.469 62.1211 113.709 66.3614 113.709 71.592C113.709 76.8227 109.469 81.063 104.238 81.063Z" fill="#B26C50"/>
<path d="M21.4607 81.063C16.2301 81.063 11.9897 76.8227 11.9897 71.592C11.9897 66.3614 16.2301 62.1211 21.4607 62.1211C26.6914 62.1211 30.9316 66.3614 30.9316 71.592C30.9316 76.8227 26.6914 81.063 21.4607 81.063Z" fill="#B26C50"/>
<path d="M62.8517 112.669C37.7218 112.669 17.35 92.2968 17.35 67.1668C17.35 42.0369 37.7218 21.665 62.8517 21.665C87.9817 21.665 108.354 42.0369 108.354 67.1668C108.354 92.2968 87.9817 112.669 62.8517 112.669Z" fill="#B26C50"/>
<path d="M17.3465 67.1879C17.3474 55.1611 22.1093 43.6237 30.5915 35.0974C39.0737 26.5711 50.5863 21.7494 62.613 21.6862C87.4685 21.5582 108.049 41.767 108.35 66.6184C108.479 76.9828 105.066 87.0807 98.6767 95.242C92.287 103.403 83.303 109.139 73.2106 111.501C72.783 111.605 72.4029 111.85 72.1324 112.197C71.8619 112.544 71.7169 112.972 71.7208 113.412C71.7245 113.909 71.9149 114.387 72.2542 114.751C72.5935 115.115 73.0571 115.338 73.5531 115.376C78.5574 115.838 83.2091 118.152 86.5968 121.864C89.9846 125.576 91.8643 130.419 91.8677 135.445C91.8682 138.094 91.347 140.716 90.3337 143.164C89.3204 145.611 87.835 147.835 85.9622 149.708C84.0894 151.581 81.866 153.067 79.4189 154.081C76.9718 155.095 74.3489 155.616 71.7002 155.616H53.955C48.6052 155.616 43.4745 153.491 39.6915 149.708C35.9086 145.925 33.7834 140.795 33.7834 135.445C33.7832 130.413 35.6639 125.563 39.0563 121.847C42.4487 118.131 47.1077 115.817 52.1187 115.36C52.615 115.322 53.079 115.099 53.419 114.735C53.759 114.371 53.9503 113.893 53.955 113.395C53.9568 112.954 53.8094 112.525 53.5367 112.178C53.264 111.832 52.8821 111.587 52.4529 111.485C42.4651 109.139 33.5628 103.487 27.1904 95.4462C20.8179 87.4055 17.3491 77.4476 17.3465 67.1879Z" fill="#B26C50"/>
<path d="M70.751 91.2348C68.2378 91.2348 65.0024 87.2112 62.5511 89.6625C60.0998 92.1138 62.9885 99.1953 70.751 99.1953C78.5134 99.1953 82.537 92.023 79.4874 89.4726C76.4377 86.9223 73.7883 91.2348 70.751 91.2348Z" fill="#934B3E"/>
<path d="M91.094 90.5495C82.6589 90.5495 75.8208 82.651 75.8208 72.9076C75.8208 63.1642 82.6589 55.2656 91.094 55.2656C99.5291 55.2656 106.367 63.1642 106.367 72.9076C106.367 82.651 99.5291 90.5495 91.094 90.5495Z" fill="white"/>
<path d="M86.4837 84.364C81.0069 84.364 76.5672 79.235 76.5672 72.9081C76.5672 66.5811 81.0069 61.4521 86.4837 61.4521C91.9606 61.4521 96.4004 66.5811 96.4004 72.9081C96.4004 79.235 91.9606 84.364 86.4837 84.364Z" fill="#182844"/>
<path d="M78.9773 66.9176C78.2047 66.2677 78.3252 64.8529 79.2466 63.7575C80.168 62.6622 81.5412 62.3012 82.3139 62.9511C83.0866 63.6011 82.966 65.0159 82.0446 66.1112C81.1232 67.2065 79.75 67.5676 78.9773 66.9176Z" fill="white"/>
<path d="M50.4202 90.5495C41.985 90.5495 35.147 82.651 35.147 72.9076C35.147 63.1642 41.985 55.2656 50.4202 55.2656C58.8553 55.2656 65.6934 63.1642 65.6934 72.9076C65.6934 82.651 58.8553 90.5495 50.4202 90.5495Z" fill="white"/>
<path d="M55.0287 84.364C49.5519 84.364 45.112 79.235 45.112 72.9081C45.112 66.5811 49.5519 61.4521 55.0287 61.4521C60.5055 61.4521 64.9453 66.5811 64.9453 72.9081C64.9453 79.235 60.5055 84.364 55.0287 84.364Z" fill="#182844"/>
<path d="M47.5203 66.9176C46.7476 66.2676 46.8682 64.8529 47.7896 63.7575C48.7109 62.6622 50.0842 62.3011 50.8568 62.9511C51.6295 63.601 51.5089 65.0159 50.5876 66.1112C49.6662 67.2065 48.2929 67.5675 47.5203 66.9176Z" fill="white"/>
<path d="M61.8179 46.9219C61.0604 46.5797 60.2747 46.3035 59.4697 46.0965C58.7406 45.9087 58.0024 45.7585 57.2578 45.6467C56.8988 45.593 56.548 45.56 56.1931 45.5187C55.8382 45.4775 55.4998 45.4734 55.149 45.4486C54.4727 45.4115 53.7949 45.4115 53.1186 45.4486C50.5526 45.5767 48.0263 46.1347 45.6451 47.0993C43.2561 48.0451 41.0392 49.378 39.0835 51.0445C38.566 51.4837 38.0728 51.9507 37.6061 52.4435C37.1274 52.9345 36.6611 53.471 36.2071 54.0323C35.738 54.6192 35.3026 55.2324 34.9031 55.8687C34.4555 56.5652 34.0676 57.2982 33.7435 58.06L33.9952 58.6955C35.192 58.3035 36.3764 57.8702 37.5649 57.4575L41.1097 56.1534C43.4703 55.2786 45.806 54.3459 48.1583 53.4463C50.5105 52.5466 52.8298 51.5686 55.149 50.5905L58.6237 49.1132C59.771 48.5973 60.9306 48.1021 62.0696 47.5656L61.8179 46.9219ZM108.611 58.4809C108.311 57.7079 107.946 56.9611 107.522 56.2483C107.142 55.5999 106.729 54.9718 106.284 54.3665C106.065 54.0777 105.838 53.8053 105.619 53.5412C105.401 53.2771 105.161 53.0171 104.93 52.753C104.48 52.2452 104.002 51.763 103.498 51.3086C101.596 49.5839 99.4185 48.1891 97.0564 47.1818C94.6991 46.1604 92.1892 45.5357 89.6282 45.333C88.9516 45.2762 88.2724 45.2569 87.5937 45.2753C86.9045 45.2753 86.1989 45.333 85.4808 45.4073C84.7346 45.4948 83.9935 45.6215 83.2606 45.787C82.451 45.9635 81.6574 46.2064 80.8877 46.5133L80.6195 47.1406C81.7419 47.7101 82.885 48.2424 84.0158 48.7913L87.4452 50.376C89.7314 51.4283 92.0465 52.4393 94.3451 53.4463C96.6437 54.4532 98.9753 55.423 101.307 56.3722L104.811 57.7835C105.987 58.2292 107.155 58.6996 108.339 59.1247L108.611 58.4809Z" fill="#934B3E"/>
<path d="M95.7444 40.5112C90.2562 40.5112 85.8071 36.0622 85.8071 30.574C85.8071 25.0858 90.2562 20.6367 95.7444 20.6367C101.233 20.6367 105.682 25.0858 105.682 30.574C105.682 36.0622 101.233 40.5112 95.7444 40.5112Z" fill="#182844"/>
<path d="M80.5803 32.2144C75.0921 32.2144 70.643 27.7653 70.643 22.2771C70.643 16.7889 75.0921 12.3398 80.5803 12.3398C86.0685 12.3398 90.5176 16.7889 90.5176 22.2771C90.5176 27.7653 86.0685 32.2144 80.5803 32.2144Z" fill="#182844"/>
<path d="M62.3498 34.0122C56.8616 34.0122 52.4126 29.5632 52.4126 24.075C52.4126 18.5868 56.8616 14.1377 62.3498 14.1377C67.838 14.1377 72.2871 18.5868 72.2871 24.075C72.2871 29.5632 67.838 34.0122 62.3498 34.0122Z" fill="#182844"/>
<path d="M50.4436 32.2144C44.9554 32.2144 40.5064 27.7653 40.5064 22.2771C40.5064 16.7889 44.9554 12.3398 50.4436 12.3398C55.9318 12.3398 60.3809 16.7889 60.3809 22.2771C60.3809 27.7653 55.9318 32.2144 50.4436 32.2144Z" fill="#182844"/>
<path d="M37.3264 35.7056C31.8382 35.7056 27.3891 31.2565 27.3891 25.7683C27.3891 20.2801 31.8382 15.8311 37.3264 15.8311C42.8146 15.8311 47.2637 20.2801 47.2637 25.7683C47.2637 31.2565 42.8146 35.7056 37.3264 35.7056Z" fill="#182844"/>
<path d="M28.3479 45.2241C22.8597 45.2241 18.4106 40.7751 18.4106 35.2869C18.4106 29.7987 22.8597 25.3496 28.3479 25.3496C33.8361 25.3496 38.2852 29.7987 38.2852 35.2869C38.2852 40.7751 33.8361 45.2241 28.3479 45.2241Z" fill="#182844"/>
<path d="M18.7932 58.2085C13.305 58.2085 8.85592 53.7595 8.85592 48.2713C8.85592 42.7831 13.305 38.334 18.7932 38.334C24.2814 38.334 28.7305 42.7831 28.7305 48.2713C28.7305 53.7595 24.2814 58.2085 18.7932 58.2085Z" fill="#182844"/>
<path d="M17.4338 73.1314C11.9456 73.1314 7.4966 68.6823 7.4966 63.1941C7.4966 57.7059 11.9456 53.2568 17.4338 53.2568C22.922 53.2568 27.3711 57.7059 27.3711 63.1941C27.3711 68.6823 22.922 73.1314 17.4338 73.1314Z" fill="#182844"/>
<path d="M110.801 50.4536C105.313 50.4536 100.864 46.0046 100.864 40.5164C100.864 35.0282 105.313 30.5791 110.801 30.5791C116.289 30.5791 120.738 35.0282 120.738 40.5164C120.738 46.0046 116.289 50.4536 110.801 50.4536Z" fill="#182844"/>
<path d="M31.2449 125.224L13.3223 164.824L47.752 178.702" stroke="#FFDF7A" stroke-width="12.7501" stroke-linecap="round" stroke-linejoin="round"/>
<path d="M94.453 125.224L108.476 167.746L140.545 139.729" stroke="#FFDF7A" stroke-width="12.7501" stroke-linecap="round" stroke-linejoin="round"/>
<path d="M41.6272 115.565H84.0917C86.1618 115.565 88.209 115.998 90.1022 116.835C91.9953 117.672 93.6926 118.896 95.0852 120.428C96.4777 121.959 97.5348 123.765 98.1887 125.729C98.8425 127.693 99.0787 129.772 98.882 131.833L93.9753 183.15H31.7436L26.841 131.85C26.6419 129.788 26.8761 127.707 27.5286 125.742C28.1811 123.776 29.2374 121.968 30.6298 120.435C32.0222 118.901 33.7198 117.676 35.6137 116.837C37.5076 115.999 39.556 115.566 41.6272 115.565Z" fill="#FFDF7A"/>
<path d="M61.0497 180.656L58.8013 185.704C58.548 186.274 58.4095 186.888 58.3936 187.512C58.3777 188.135 58.4847 188.756 58.7087 189.338C58.9326 189.92 59.269 190.453 59.6987 190.905C60.1284 191.357 60.6429 191.72 61.213 191.974L72.3713 196.944C74.1909 197.754 76.258 197.809 78.1177 197.095C79.9775 196.382 81.4777 194.959 82.2882 193.139C83.0987 191.319 83.1532 189.252 82.4397 187.393C81.7262 185.533 80.303 184.033 78.4834 183.222L67.3251 178.252C66.1744 177.739 64.8671 177.705 63.691 178.156C62.5148 178.607 61.5661 179.507 61.0535 180.658L61.0497 180.656Z" fill="#B26C50"/>
<path d="M63.7616 179.143L64.8117 183.783C64.8313 183.87 64.8679 183.952 64.9192 184.025C64.9705 184.097 65.0355 184.159 65.1107 184.206C65.1859 184.254 65.2696 184.286 65.3572 184.301C65.4448 184.316 65.5345 184.314 65.6212 184.294L73.9007 182.421C74.6917 182.242 75.3792 181.756 75.812 181.07C76.2447 180.384 76.3873 179.554 76.2083 178.763C76.0293 177.972 75.5435 177.285 74.8576 176.852C74.1717 176.419 73.3419 176.277 72.5509 176.456L64.2714 178.329C64.1844 178.349 64.1022 178.386 64.0294 178.437C63.9566 178.489 63.8947 178.554 63.8473 178.63C63.7999 178.705 63.768 178.79 63.7533 178.878C63.7385 178.966 63.7414 179.056 63.7616 179.143Z" fill="#B26C50"/>
<defs>
<clipPath id="clip0">
<rect width="96" height="96" fill="white" transform="translate(247.568 52)"/>
</clipPath>
</defs>
</svg>
