<svg width="223" height="147" viewBox="0 0 223 147" fill="none" xmlns="http://www.w3.org/2000/svg">
<path d="M168.286 46.4532C167.726 49.8237 167.459 53.0239 166.656 56.0902C162.567 71.5192 143.184 79.2459 129.458 71.0082C119.894 65.277 117.765 53.3038 124.725 44.3116C129.105 38.6657 135.201 35.6237 141.748 33.3118C142.965 32.8859 144.194 32.4722 145.508 32.022C134.325 19.2699 94.7428 16.1914 76.7585 26.0597C79.2043 33.1293 82.2585 39.9068 83.8647 47.0251C86.493 58.6455 80.6036 65.9706 68.6911 66.7007C58.6891 67.3213 49.8916 64.1576 42.8707 56.9055C33.7812 47.524 34.0368 34.7962 43.3209 25.5486C44.7933 24.0763 46.4237 22.7621 48.3219 21.0586C42.2015 17.9436 35.9593 16.4469 29.4251 17.1405C14.2151 18.7467 1.18317 24.928 -8.94059 36.5971C-18.8088 47.9742 -15.2436 64.8877 -1.6398 71.6166C0.136726 72.4927 2.04714 73.1132 3.79933 74.038C7.51057 75.9849 7.79042 79.0878 4.39555 81.5579C0.307106 84.539 -4.3654 85.0378 -9.22043 84.0766C-27.8618 80.4018 -39.7865 59.3391 -33.1427 40.9533C-31.2689 35.7697 -28.1903 30.7687 -24.6616 26.5099C-11.9582 11.1904 4.54158 2.44159 24.3389 0.275686C37.748 -1.18447 49.6361 3.269 60.3805 10.947C62.6315 12.5653 64.4202 12.7114 66.9999 11.8353C84.5583 5.9338 102.482 2.1739 121.074 5.33757C137.148 8.07537 151.032 15.0233 161.46 28.0552C162.336 29.1381 164.478 29.6249 166.059 29.6735C186.733 30.2941 201.712 39.6513 210.168 58.6455C215.109 69.7427 214.537 81.278 211.483 92.7645C210.582 96.1716 209.487 99.5543 208.148 102.815C207.333 104.799 207.625 105.882 209.244 107.281C211.555 109.301 213.734 111.564 215.571 114.022C223.2 124.28 224.247 135.292 218.576 146.778C213.648 156.78 206.627 165.079 197.453 171.443C195.53 172.781 195.287 173.779 196.127 175.969C201.578 190.279 199.351 203.286 189.033 214.761C188.217 215.661 187.378 216.562 186.453 217.34C169.807 231.297 150.594 238.841 128.935 239.973C125.576 240.143 122.097 239.486 118.799 238.707C116.438 238.16 114.199 236.846 113.615 234.595C134.447 229.691 153.66 222.025 170.854 209.748C174.236 207.338 177.461 204.479 180.113 201.303C185.187 195.219 185.516 186.774 181.488 180.654C177.035 181.822 172.618 183.185 168.104 184.11C163.431 185.071 158.819 184.462 154.585 182.151C149.377 179.291 146.153 174.959 146.092 168.863C146.031 162.828 148.951 158.289 154.074 155.235C159.537 151.974 165.487 151.633 171.365 153.617C175.295 154.943 178.897 157.218 182.73 158.898C183.752 159.348 185.382 159.615 186.21 159.117C194.143 154.359 200.531 148.007 204.766 139.733C208.428 132.59 205.824 124.888 200.361 121.724C196.638 124.62 193.255 127.115 190.018 129.804C185.443 133.6 180.612 136.801 174.528 137.531C166.266 138.516 159.367 134.89 155.875 127.784C152.456 120.812 153.709 112.744 159.501 107.013C166.437 100.151 175.173 97.8264 184.676 97.8751C186.331 97.8873 188.083 97.8265 189.604 98.3618C192.768 99.457 193.839 97.9116 194.812 95.2711C197.209 88.7734 198.779 82.1662 198.426 75.194C197.672 59.4364 184.044 46.3802 168.286 46.4532ZM73.4245 51.0892C72.6336 43.4233 68.7885 37.4124 63.5563 31.5231C61.2079 33.5673 59.0054 35.2465 57.1316 37.2177C56.4501 37.9356 56 39.5904 56.3407 40.4422C58.3971 45.5527 67.4622 52.1965 73.4245 51.0892ZM139.935 54.0825C143.366 57.1245 149.292 57.9276 152.456 56.0172C154.987 54.4962 156.082 50.931 155.084 47.1224C149.56 48.4001 144.108 49.702 139.935 54.0825Z" fill="#9F9FFF"/>
</svg>
