<svg width="96" height="195" viewBox="0 0 96 195" fill="none" xmlns="http://www.w3.org/2000/svg">
<path d="M21.4377 95.3933C22.6777 95.1233 23.5277 94.9433 24.3777 94.7433C31.6377 93.0133 38.8277 93.3732 45.8677 95.7532C51.8877 97.7932 56.2277 101.613 56.9377 108.253C57.6477 114.883 54.3077 119.703 48.8077 122.853C30.6577 133.253 8.07772 126.263 3.27772 105.193C-0.662281 87.9032 12.0677 70.5933 30.3277 68.6433C35.5477 68.0833 41.1477 68.3532 46.2177 69.6332C63.1077 73.9132 76.7077 83.6333 86.0677 98.1533C97.7277 116.263 97.9877 135.393 87.3677 154.203C76.1377 174.083 58.5877 185.993 36.7977 191.453C6.97771 198.923 -19.3723 191.743 -41.7123 170.703C-53.3123 159.783 -58.0923 145.443 -60.1723 130.063C-62.3023 114.343 -60.2223 99.0133 -55.0723 84.1533C-42.9823 49.3233 -23.3623 19.5833 5.39771 -3.84674C13.1177 -10.1267 21.4077 -15.5467 30.5877 -19.3967C33.8677 -20.7767 37.5177 -21.5667 41.0677 -21.9467C44.6977 -22.3267 47.8377 -20.6567 49.8277 -17.4667C50.3277 -16.6667 50.6177 -15.2267 50.2277 -14.5067C49.8477 -13.8067 48.3777 -13.1667 47.5377 -13.3367C41.9977 -14.4067 37.3977 -12.1967 32.8577 -9.54675C16.1377 0.193253 2.94771 13.8133 -8.48229 29.1033C-23.7923 49.5733 -34.7223 72.1932 -39.6623 97.4432C-41.6223 107.453 -41.4023 117.453 -39.1023 127.463C-35.4323 143.423 -26.0823 154.713 -11.6323 162.103C13.8177 175.133 45.6377 169.953 65.4977 149.373C71.6777 142.963 76.2877 135.633 77.3477 126.573C78.2477 118.923 76.8577 111.563 72.4177 105.253C64.3977 93.8732 53.4477 86.9132 39.4477 85.2532C35.0977 84.7332 30.9277 85.5733 27.1477 87.8933C24.4577 89.5633 22.5477 91.8633 21.4377 95.3933Z" fill="#FFEA9F"/>
</svg>
