<svg width="130" height="186" viewBox="0 0 130 186" fill="none" xmlns="http://www.w3.org/2000/svg">
<path d="M116.531 103.874C117.921 104.324 119.021 104.724 120.151 105.044C135.891 109.494 148.451 118.984 159.371 130.644C168.141 140.014 172.531 151.564 173.691 164.364C173.911 166.774 175.091 169.094 175.301 171.504C175.641 175.424 175.601 179.394 175.601 183.334C175.601 184.014 175.041 184.694 174.661 185.564C174.061 185.104 173.711 184.954 173.531 184.684C169.611 179.024 165.781 173.294 161.791 167.684C150.441 151.664 135.191 144.014 115.391 146.354C103.491 147.754 91.6206 149.594 79.6806 150.584C54.7306 152.644 33.1906 144.344 15.5706 126.934C2.11056 113.624 -2.03943 96.6937 0.890568 78.2437C3.51057 61.7337 10.1706 46.6637 20.3706 33.4537C37.5606 11.2037 72.3806 -7.44632 110.291 2.96368C135.371 9.84368 153.041 40.1137 144.211 66.8437C140.571 77.8737 134.621 87.3537 126.071 95.2037C123.011 98.0137 119.911 100.804 116.531 103.874ZM144.201 134.804C138.771 129.344 133.521 123.834 126.571 120.314C117.271 115.604 107.631 112.504 97.0506 112.884C94.7206 112.964 92.7006 112.094 92.1906 109.454C91.7706 107.264 93.1106 105.274 95.8906 104.504C98.4906 103.774 101.211 103.224 103.901 103.084C106.491 102.944 108.511 102.044 109.991 100.064C113.581 95.2737 117.151 90.4637 120.591 85.5637C124.991 79.3037 127.661 72.3037 129.041 64.7837C132.511 45.7937 122.611 27.8737 105.361 21.5437C73.9906 10.0337 46.4706 24.6337 31.3606 44.8337C24.0006 54.6837 19.3206 65.9537 16.6606 77.9837C13.7506 91.0937 15.9506 103.514 24.6106 113.664C35.7406 126.694 50.1606 134.394 67.6106 135.644C77.8606 136.384 87.8805 134.494 97.9605 133.174C113.421 131.134 128.941 127.934 144.201 134.804Z" fill="#80ECEE"/>
</svg>
