<svg width="100" height="144" viewBox="0 0 100 144" fill="none" xmlns="http://www.w3.org/2000/svg">
<path d="M47.742 40.5001H47.4705V36.0001H72.8295C82.7225 36.0001 90.9685 28.1305 91.0963 18.2384C91.2261 8.18777 83.1183 0 73.0975 0H55.5487C43.0644 0 32.9434 10.1208 32.9434 22.6051V62.3278L55.0486 76.6817C60.3205 80.1049 63.5015 85.9636 63.5015 92.2493C63.5015 100.934 56.4316 107.999 47.7417 107.999L32.9434 118.722V133.277L47.7417 143.999C76.2828 143.999 99.5016 120.785 99.5016 92.2491C99.5019 63.7149 76.2828 40.5001 47.742 40.5001Z" fill="#FF8F71"/>
<path d="M47.7434 108C42.1324 108 36.8976 104.977 34.0809 100.111C29.1002 91.5079 18.0872 88.5715 9.48453 93.5522C0.880959 98.5329 -2.05548 109.545 2.92522 118.148C12.1564 134.095 29.3294 144 47.7437 144C37.802 134.059 37.802 117.941 47.7434 108Z" fill="#FF6F4D"/>
<path d="M45.2266 57.4995C40.6655 56.1142 37.5511 51.9034 37.5511 47.1365V18.0002C37.5511 8.05882 45.61 0 55.5514 0H29.4729C19.5318 0 11.4727 8.05882 11.4727 18.0002C11.4727 60.6733 11.3516 58.7107 11.3516 58.7107C11.464 68.6115 19.7036 76.5006 29.6047 76.5006H47.7443C56.4342 76.5006 63.5041 83.5652 63.5041 92.2499V82.1712C63.5044 70.5361 55.7997 60.7109 45.2266 57.4995Z" fill="#FF6F4D"/>
<path d="M32.64 11.085C31.4395 11.085 30.4668 12.058 30.4668 13.2582V16.7353C30.4668 17.9355 31.4395 18.9085 32.64 18.9085C33.8405 18.9085 34.8132 17.9355 34.8132 16.7353V13.2582C34.8132 12.058 33.8405 11.085 32.64 11.085Z" fill="#313D40"/>
<path d="M68.8314 11.085C67.6309 11.085 66.6582 12.058 66.6582 13.2582V16.7353C66.6582 17.9355 67.6309 18.9085 68.8314 18.9085C70.0319 18.9085 71.0046 17.9355 71.0046 16.7353V13.2582C71.0046 12.058 70.0319 11.085 68.8314 11.085Z" fill="#313D40"/>
<path d="M56.3826 19.8418H45.082C41.9613 19.8418 39.4316 22.1747 39.4316 27.3756C39.4316 33.2319 42.6245 39.6191 46.1399 38.509C47.1654 40.8903 48.8396 42.4431 50.7323 42.4431C52.625 42.4431 54.2993 40.8903 55.3247 38.509C58.8398 39.6191 62.033 33.2322 62.033 27.3756C62.033 22.1747 59.5034 19.8418 56.3826 19.8418Z" fill="#FFCE71"/>
<path d="M66.5297 24.9273C66.1032 23.2824 65.4831 21.6875 64.6801 20.1851C62.7422 16.5593 59.2607 14.0329 55.1285 13.254C53.3699 12.9225 51.6609 13.7107 50.734 15.116C49.8067 13.711 48.0974 12.9228 46.3392 13.254C42.2069 14.0329 38.7257 16.5593 36.7878 20.1851C35.9852 21.6872 35.3651 23.2824 34.9383 24.9273C34.2289 27.6624 36.2772 30.3348 39.1027 30.3348C41.0496 30.3348 42.7803 29.0347 43.2605 27.1481C43.5169 26.1406 43.8939 25.1641 44.385 24.2452C45.0761 22.9517 46.4032 22.0074 47.9352 21.7185C49.1304 21.4931 50.1142 20.7849 50.7337 19.8429C51.3532 20.7849 52.3369 21.4931 53.5322 21.7185C55.0641 22.0074 56.3915 22.952 57.0826 24.2449C57.5735 25.1641 57.9507 26.1408 58.2072 27.1481C58.6873 29.0347 60.4181 30.3348 62.365 30.3348C65.1907 30.3348 67.239 27.6621 66.5297 24.9273Z" fill="#FCE3A0"/>
</svg>
