<svg width="670" height="600" viewBox="0 0 670 600" fill="none" xmlns="http://www.w3.org/2000/svg">
<path d="M125.381 437.949H131.428C132.354 437.949 133.272 438.132 134.128 438.486C134.984 438.841 135.762 439.361 136.417 440.016C137.072 440.671 137.592 441.449 137.946 442.305C138.301 443.161 138.483 444.078 138.483 445.005V451.051C138.483 462.123 134.085 472.741 126.257 480.569C118.428 488.398 107.81 492.796 96.7389 492.796H90.6923C88.8211 492.796 87.0264 492.053 85.7033 490.729C84.3801 489.406 83.6367 487.612 83.6367 485.74V479.694C83.6367 468.622 88.0348 458.005 95.8634 450.176C103.692 442.347 114.31 437.949 125.381 437.949Z" fill="url(#paint0_linear)"/>
<path d="M83.3857 336.432V495.419" stroke="#75ACC9" stroke-width="11.83" stroke-miterlimit="10"/>
<path d="M78.2671 507.055H72.2204C61.1491 507.055 50.5313 502.657 42.7027 494.828C34.874 486.999 30.476 476.382 30.476 465.31V459.264C30.476 457.392 31.2193 455.598 32.5425 454.275C33.8657 452.951 35.6603 452.208 37.5316 452.208H43.5782C54.6483 452.206 65.2658 456.601 73.0956 464.427C80.9254 472.252 85.3262 482.868 85.3301 493.938V499.984C85.3301 500.911 85.1476 501.828 84.793 502.684C84.4384 503.54 83.9187 504.318 83.2635 504.973C82.6083 505.629 81.8305 506.148 80.9745 506.503C80.1185 506.857 79.201 507.04 78.2745 507.04L78.2671 507.055Z" fill="url(#paint1_linear)"/>
<path d="M110.099 600.001H56.703C54.0256 600.001 51.4329 599.062 49.3765 597.348C47.3201 595.633 45.9303 593.252 45.4493 590.618L30.7637 510.487H136.082L121.397 590.618C120.914 593.259 119.518 595.647 117.453 597.362C115.387 599.077 112.784 600.012 110.099 600.001Z" fill="url(#paint2_linear)"/>
<path d="M137.622 483.517H29.1514C24.2256 483.517 20.2324 487.51 20.2324 492.436V501.568C20.2324 506.494 24.2256 510.487 29.1514 510.487H137.622C142.548 510.487 146.541 506.494 146.541 501.568V492.436C146.541 487.51 142.548 483.517 137.622 483.517Z" fill="url(#paint3_linear)"/>
<path d="M30.7266 510.487H136.045L134.499 518.891H32.2659L30.7266 510.487Z" fill="#75ACC9"/>
<path d="M111.064 416.12C131.87 416.12 148.736 399.253 148.736 378.448C148.736 357.643 131.87 340.776 111.064 340.776C90.2588 340.776 73.3926 357.643 73.3926 378.448C73.3926 399.253 90.2588 416.12 111.064 416.12Z" fill="url(#paint4_linear)"/>
<path d="M55.701 416.12C76.5065 416.12 93.3726 399.253 93.3726 378.448C93.3726 357.643 76.5065 340.776 55.701 340.776C34.8955 340.776 18.0293 357.643 18.0293 378.448C18.0293 399.253 34.8955 416.12 55.701 416.12Z" fill="url(#paint5_linear)"/>
<path d="M83.3865 330.929C104.192 330.929 121.058 314.063 121.058 293.258C121.058 272.452 104.192 255.586 83.3865 255.586C62.581 255.586 45.7148 272.452 45.7148 293.258C45.7148 314.063 62.581 330.929 83.3865 330.929Z" fill="url(#paint6_linear)"/>
<path d="M37.6716 363.843C58.4771 363.843 75.3433 346.977 75.3433 326.172C75.3433 305.366 58.4771 288.5 37.6716 288.5C16.8662 288.5 0 305.366 0 326.172C0 346.977 16.8662 363.843 37.6716 363.843Z" fill="url(#paint7_linear)"/>
<path d="M128.172 363.467C148.977 363.467 165.843 346.601 165.843 325.796C165.843 304.99 148.977 288.124 128.172 288.124C107.366 288.124 90.5 304.99 90.5 325.796C90.5 346.601 107.366 363.467 128.172 363.467Z" fill="url(#paint8_linear)"/>
<path d="M83.386 358.106C95.3567 358.106 105.061 348.402 105.061 336.431C105.061 324.46 95.3567 314.756 83.386 314.756C71.4152 314.756 61.7109 324.46 61.7109 336.431C61.7109 348.402 71.4152 358.106 83.386 358.106Z" fill="white"/>
<path d="M457.628 370.801V335.287H413.954V370.801C413.955 384.757 409.216 398.299 400.513 409.209L382.425 431.878C381.404 433.178 380.769 434.738 380.59 436.38C380.411 438.023 380.697 439.683 381.414 441.171C382.131 442.66 383.251 443.918 384.647 444.802C386.043 445.686 387.658 446.161 389.311 446.174H482.271C483.923 446.161 485.539 445.686 486.935 444.802C488.331 443.918 489.451 442.66 490.168 441.171C490.885 439.683 491.171 438.023 490.992 436.38C490.813 434.738 490.178 433.178 489.157 431.878L471.069 409.209C462.366 398.299 457.627 384.757 457.628 370.801Z" fill="#8060B8"/>
<path d="M446.545 370.801V335.287H402.856V370.801C402.854 384.757 398.112 398.3 389.407 409.209L371.319 431.878C370.299 433.178 369.663 434.738 369.484 436.38C369.306 438.023 369.591 439.683 370.308 441.171C371.025 442.66 372.145 443.918 373.541 444.802C374.937 445.686 376.553 446.161 378.205 446.174H471.173C472.825 446.16 474.439 445.684 475.834 444.799C477.229 443.914 478.348 442.657 479.064 441.168C479.78 439.68 480.065 438.021 479.886 436.379C479.707 434.737 479.072 433.177 478.052 431.878L459.971 409.209C451.274 398.297 446.54 384.755 446.545 370.801Z" fill="url(#paint9_linear)"/>
<path d="M646.561 58.7998H224.373C211.43 58.7998 200.938 69.2921 200.938 82.2351V318.451C200.938 331.394 211.43 341.886 224.373 341.886H646.561C659.503 341.886 669.996 331.394 669.996 318.451V82.2351C669.996 69.2921 659.503 58.7998 646.561 58.7998Z" fill="#8060B8"/>
<path d="M632.251 58.7998H212.302C198.741 58.7998 187.747 69.7933 187.747 83.3545V317.331C187.747 330.892 198.741 341.886 212.302 341.886H632.251C645.812 341.886 656.805 330.892 656.805 317.331V83.3545C656.805 69.7933 645.812 58.7998 632.251 58.7998Z" fill="url(#paint10_linear)"/>
<path d="M621.845 72.1455H222.71C211.292 72.1455 202.036 81.4013 202.036 92.8189V307.868C202.036 319.285 211.292 328.541 222.71 328.541H621.845C633.263 328.541 642.518 319.285 642.518 307.868V92.8189C642.518 81.4013 633.263 72.1455 621.845 72.1455Z" fill="url(#paint11_linear)"/>
<path d="M307.207 446.174H528.31C542.112 446.174 553.299 456.698 553.299 469.683C553.299 482.667 542.112 493.192 528.31 493.192H307.207" fill="url(#paint12_linear)"/>
<path d="M540.499 449.163C543.855 453.197 545.696 458.277 545.706 463.525C545.706 476.502 534.519 487.034 520.717 487.034H307.207V493.191H528.31C542.112 493.191 553.299 482.666 553.299 469.682C553.299 460.866 548.129 453.184 540.499 449.163Z" fill="#8060B8"/>
<path d="M553.299 493.191H332.189C318.394 493.191 307.207 503.716 307.207 516.7C307.207 529.685 318.394 540.209 332.189 540.209H553.299" fill="url(#paint13_linear)"/>
<path d="M547.606 493.191V534.516H326.496C321.087 534.538 315.808 532.867 311.397 529.736C313.778 533.012 316.906 535.672 320.523 537.494C324.14 539.316 328.139 540.247 332.189 540.209H553.299V493.191H547.606Z" fill="#8060B8"/>
<path d="M312.308 208.603L315.019 205.673C317.346 203.158 320.577 201.671 324 201.538C327.424 201.405 330.76 202.638 333.274 204.965L343.475 214.404C345.065 215.875 346.005 217.918 346.089 220.083C346.173 222.247 345.393 224.356 343.922 225.946L334.758 235.849C333.287 237.439 331.244 238.38 329.08 238.464C326.915 238.548 324.806 237.768 323.216 236.297L313.016 226.858C310.501 224.531 309.014 221.3 308.881 217.877C308.748 214.453 309.981 211.117 312.308 208.603Z" fill="#B26C50"/>
<path d="M305.86 228.813C306.029 227.212 306.826 225.744 308.078 224.732C309.329 223.719 310.931 223.245 312.532 223.414L329.319 225.184C329.674 225.222 330 225.399 330.225 225.677C330.45 225.955 330.555 226.311 330.518 226.666L329.527 236.063C329.489 236.419 329.312 236.745 329.034 236.97C328.757 237.195 328.401 237.3 328.045 237.262L311.258 235.492C309.657 235.323 308.189 234.525 307.177 233.274C306.164 232.023 305.69 230.421 305.859 228.82L305.86 228.813Z" fill="#B26C50"/>
<path d="M317.087 221.785L296.259 203.417" stroke="#B26C50" stroke-width="15.11" stroke-linecap="round" stroke-linejoin="round"/>
<path d="M406.817 115.114C416.611 115.114 424.552 107.174 424.552 97.3793C424.552 87.5847 416.611 79.6445 406.817 79.6445C397.022 79.6445 389.082 87.5847 389.082 97.3793C389.082 107.174 397.022 115.114 406.817 115.114Z" fill="#182844"/>
<path d="M406.434 111.725C416.229 111.725 424.169 103.785 424.169 93.9906C424.169 84.196 416.229 76.2559 406.434 76.2559C396.639 76.2559 388.699 84.196 388.699 93.9906C388.699 103.785 396.639 111.725 406.434 111.725Z" fill="#182844"/>
<path d="M591.788 128.179C601.582 128.179 609.522 120.238 609.522 110.444C609.522 100.649 601.582 92.709 591.788 92.709C581.993 92.709 574.053 100.649 574.053 110.444C574.053 120.238 581.993 128.179 591.788 128.179Z" fill="#182844"/>
<path d="M591.788 145.921C601.582 145.921 609.522 137.981 609.522 128.186C609.522 118.391 601.582 110.451 591.788 110.451C581.993 110.451 574.053 118.391 574.053 128.186C574.053 137.981 581.993 145.921 591.788 145.921Z" fill="#182844"/>
<path d="M571.114 171.177C580.908 171.177 588.848 163.236 588.848 153.442C588.848 143.647 580.908 135.707 571.114 135.707C561.319 135.707 553.379 143.647 553.379 153.442C553.379 163.236 561.319 171.177 571.114 171.177Z" fill="#182844"/>
<path d="M422.497 163.656C432.291 163.656 440.231 155.716 440.231 145.921C440.231 136.127 432.291 128.187 422.497 128.187C412.702 128.187 404.762 136.127 404.762 145.921C404.762 155.716 412.702 163.656 422.497 163.656Z" fill="#182844"/>
<path d="M410.72 139.521C420.515 139.521 428.455 131.581 428.455 121.787C428.455 111.992 420.515 104.052 410.72 104.052C400.926 104.052 392.985 111.992 392.985 121.787C392.985 131.581 400.926 139.521 410.72 139.521Z" fill="#182844"/>
<path d="M591.787 111.947C591.787 163.981 549.601 171.176 497.568 171.176C445.534 171.176 403.355 163.981 403.355 111.947C403.575 87.1039 413.598 63.3527 431.243 45.863C448.888 28.3732 472.727 18.5605 497.571 18.5605C522.416 18.5605 546.255 28.3732 563.9 45.863C581.545 63.3527 591.568 87.1039 591.787 111.947Z" fill="#182844"/>
<path d="M421.09 66.5721C430.885 66.5721 438.825 58.632 438.825 48.8373C438.825 39.0427 430.885 31.1025 421.09 31.1025C411.296 31.1025 403.355 39.0427 403.355 48.8373C403.355 58.632 411.296 66.5721 421.09 66.5721Z" fill="#182844"/>
<path d="M443.111 57.491C452.905 57.491 460.846 49.5509 460.846 39.7563C460.846 29.9616 452.905 22.0215 443.111 22.0215C433.316 22.0215 425.376 29.9616 425.376 39.7563C425.376 49.5509 433.316 57.491 443.111 57.491Z" fill="#182844"/>
<path d="M460.573 39.7567C470.367 39.7567 478.307 31.8165 478.307 22.0219C478.307 12.2272 470.367 4.28711 460.573 4.28711C450.778 4.28711 442.838 12.2272 442.838 22.0219C442.838 31.8165 450.778 39.7567 460.573 39.7567Z" fill="#182844"/>
<path d="M478.308 35.4696C488.103 35.4696 496.043 27.5294 496.043 17.7348C496.043 7.94013 488.103 0 478.308 0C468.513 0 460.573 7.94013 460.573 17.7348C460.573 27.5294 468.513 35.4696 478.308 35.4696Z" fill="#182844"/>
<path d="M500.742 35.4696C510.536 35.4696 518.476 27.5294 518.476 17.7348C518.476 7.94013 510.536 0 500.742 0C490.947 0 483.007 7.94013 483.007 17.7348C483.007 27.5294 490.947 35.4696 500.742 35.4696Z" fill="#182844"/>
<path d="M525.216 39.7567C535.011 39.7567 542.951 31.8165 542.951 22.0219C542.951 12.2272 535.011 4.28711 525.216 4.28711C515.422 4.28711 507.481 12.2272 507.481 22.0219C507.481 31.8165 515.422 39.7567 525.216 39.7567Z" fill="#182844"/>
<path d="M553.378 45.9793C563.173 45.9793 571.113 38.0392 571.113 28.2445C571.113 18.4499 563.173 10.5098 553.378 10.5098C543.584 10.5098 535.644 18.4499 535.644 28.2445C535.644 38.0392 543.584 45.9793 553.378 45.9793Z" fill="#182844"/>
<path d="M563.726 60.701C573.521 60.701 581.461 52.7609 581.461 42.9662C581.461 33.1716 573.521 25.2314 563.726 25.2314C553.931 25.2314 545.991 33.1716 545.991 42.9662C545.991 52.7609 553.931 60.701 563.726 60.701Z" fill="#182844"/>
<path d="M578.317 78.4432C588.111 78.4432 596.052 70.5031 596.052 60.7084C596.052 50.9138 588.111 42.9736 578.317 42.9736C568.522 42.9736 560.582 50.9138 560.582 60.7084C560.582 70.5031 568.522 78.4432 578.317 78.4432Z" fill="#182844"/>
<path d="M581.461 90.4559C591.256 90.4559 599.196 82.5157 599.196 72.7211C599.196 62.9264 591.256 54.9863 581.461 54.9863C571.667 54.9863 563.727 62.9264 563.727 72.7211C563.727 82.5157 571.667 90.4559 581.461 90.4559Z" fill="#182844"/>
<path d="M587.524 108.573C597.318 108.573 605.259 100.633 605.259 90.8383C605.259 81.0436 597.318 73.1035 587.524 73.1035C577.729 73.1035 569.789 81.0436 569.789 90.8383C569.789 100.633 577.729 108.573 587.524 108.573Z" fill="#182844"/>
<path d="M423.491 144.67C432.826 144.67 440.394 137.103 440.394 127.768C440.394 118.433 432.826 110.865 423.491 110.865C414.156 110.865 406.589 118.433 406.589 127.768C406.589 137.103 414.156 144.67 423.491 144.67Z" fill="#B26C50"/>
<path d="M571.225 144.67C580.56 144.67 588.127 137.103 588.127 127.768C588.127 118.433 580.56 110.865 571.225 110.865C561.89 110.865 554.322 118.433 554.322 127.768C554.322 137.103 561.89 144.67 571.225 144.67Z" fill="#B26C50"/>
<path d="M497.353 201.078C542.202 201.078 578.559 164.721 578.559 119.872C578.559 75.0231 542.202 38.666 497.353 38.666C452.505 38.666 416.147 75.0231 416.147 119.872C416.147 164.721 452.505 201.078 497.353 201.078Z" fill="#B26C50"/>
<path d="M578.566 119.909C578.565 98.4451 570.066 77.8545 554.928 62.6379C539.79 47.4213 519.244 38.8161 497.78 38.7032C453.421 38.4749 416.692 74.541 416.155 118.893C415.925 137.39 422.015 155.411 433.418 169.976C444.822 184.542 460.855 194.779 478.867 198.994C479.63 199.178 480.308 199.616 480.791 200.235C481.274 200.854 481.533 201.619 481.526 202.404C481.519 203.292 481.18 204.145 480.574 204.794C479.968 205.443 479.141 205.841 478.256 205.909C469.325 206.733 461.023 210.862 454.977 217.487C448.931 224.112 445.576 232.756 445.57 241.725C445.569 246.452 446.5 251.133 448.308 255.501C450.116 259.869 452.767 263.837 456.11 267.18C459.452 270.523 463.42 273.175 467.787 274.984C472.155 276.794 476.835 277.725 481.563 277.725H513.232C522.78 277.725 531.936 273.932 538.688 267.181C545.439 260.43 549.232 251.273 549.232 241.725C549.232 232.745 545.876 224.089 539.821 217.457C533.767 210.825 525.452 206.696 516.509 205.88C515.623 205.812 514.795 205.414 514.189 204.765C513.582 204.116 513.24 203.263 513.232 202.374C513.229 201.587 513.492 200.821 513.979 200.202C514.465 199.583 515.147 199.147 515.913 198.964C533.738 194.777 549.625 184.691 560.998 170.341C572.371 155.991 578.562 138.219 578.566 119.909Z" fill="#B26C50"/>
<path d="M483.257 162.824C487.742 162.824 493.516 155.643 497.891 160.018C502.266 164.392 497.111 177.031 483.257 177.031C469.404 177.031 462.223 164.23 467.665 159.679C473.108 155.127 477.837 162.824 483.257 162.824Z" fill="#934B3E"/>
<path d="M446.949 161.601C462.003 161.601 474.207 147.505 474.207 130.116C474.207 112.727 462.003 98.6309 446.949 98.6309C431.895 98.6309 419.691 112.727 419.691 130.116C419.691 147.505 431.895 161.601 446.949 161.601Z" fill="white"/>
<path d="M455.175 150.561C464.949 150.561 472.872 141.407 472.872 130.116C472.872 118.824 464.949 109.671 455.175 109.671C445.4 109.671 437.477 118.824 437.477 130.116C437.477 141.407 445.4 150.561 455.175 150.561Z" fill="#182844"/>
<path d="M468.572 119.426C469.95 118.266 469.735 115.741 468.091 113.786C466.447 111.831 463.996 111.187 462.617 112.347C461.238 113.507 461.453 116.032 463.097 117.987C464.742 119.942 467.193 120.586 468.572 119.426Z" fill="white"/>
<path d="M519.537 161.601C534.591 161.601 546.795 147.505 546.795 130.116C546.795 112.727 534.591 98.6309 519.537 98.6309C504.483 98.6309 492.279 112.727 492.279 130.116C492.279 147.505 504.483 161.601 519.537 161.601Z" fill="white"/>
<path d="M511.311 150.561C521.086 150.561 529.009 141.407 529.009 130.116C529.009 118.824 521.086 109.671 511.311 109.671C501.537 109.671 493.613 118.824 493.613 130.116C493.613 141.407 501.537 150.561 511.311 150.561Z" fill="#182844"/>
<path d="M524.711 119.425C526.09 118.265 525.875 115.74 524.231 113.785C522.586 111.83 520.136 111.186 518.757 112.346C517.378 113.506 517.593 116.031 519.237 117.986C520.881 119.941 523.332 120.585 524.711 119.425Z" fill="white"/>
<path d="M499.195 83.7397C500.547 83.129 501.949 82.6362 503.385 82.2667C504.686 81.9314 506.004 81.6635 507.333 81.4639C507.974 81.3681 508.6 81.3092 509.233 81.2356C509.866 81.1619 510.47 81.1546 511.096 81.1104C512.303 81.0442 513.513 81.0442 514.72 81.1104C519.299 81.339 523.808 82.3348 528.058 84.0563C532.321 85.7443 536.278 88.1231 539.768 91.0972C540.692 91.881 541.572 92.7145 542.405 93.5939C543.259 94.4704 544.091 95.4278 544.901 96.4294C545.739 97.477 546.516 98.5712 547.229 99.7068C548.028 100.95 548.72 102.258 549.298 103.618L548.849 104.752C546.713 104.052 544.599 103.279 542.478 102.542L536.152 100.215C531.939 98.6537 527.771 96.9892 523.573 95.3836C519.375 93.7781 515.235 92.0326 511.096 90.2871L504.895 87.6504C502.848 86.7298 500.778 85.846 498.745 84.8886L499.195 83.7397ZM415.684 104.369C416.22 102.989 416.871 101.656 417.628 100.384C418.305 99.2271 419.043 98.1061 419.837 97.026C420.228 96.5104 420.633 96.0244 421.023 95.553C421.414 95.0816 421.841 94.6177 422.253 94.1463C423.056 93.2401 423.91 92.3795 424.809 91.5686C428.204 88.4905 432.09 86.0013 436.305 84.2036C440.512 82.3807 444.992 81.2659 449.562 80.9041C450.77 80.8027 451.982 80.7683 453.193 80.801C454.423 80.801 455.683 80.9041 456.964 81.0367C458.296 81.1928 459.618 81.4189 460.926 81.7143C462.371 82.0294 463.788 82.4629 465.161 83.0105L465.64 84.13C463.637 85.1464 461.597 86.0964 459.579 87.076L453.458 89.9041C449.378 91.7822 445.246 93.5866 441.144 95.3836C437.042 97.1807 432.881 98.9114 428.72 100.605L422.467 103.124C420.368 103.92 418.283 104.759 416.17 105.518L415.684 104.369Z" fill="#934B3E"/>
<path d="M438.649 72.3016C448.443 72.3016 456.384 64.3615 456.384 54.5668C456.384 44.7722 448.443 36.832 438.649 36.832C428.854 36.832 420.914 44.7722 420.914 54.5668C420.914 64.3615 428.854 72.3016 438.649 72.3016Z" fill="#182844"/>
<path d="M465.714 57.491C475.509 57.491 483.449 49.5509 483.449 39.7563C483.449 29.9616 475.509 22.0215 465.714 22.0215C455.92 22.0215 447.979 29.9616 447.979 39.7563C447.979 49.5509 455.92 57.491 465.714 57.491Z" fill="#182844"/>
<path d="M498.246 60.701C508.04 60.701 515.98 52.7609 515.98 42.9662C515.98 33.1716 508.04 25.2314 498.246 25.2314C488.451 25.2314 480.511 33.1716 480.511 42.9662C480.511 52.7609 488.451 60.701 498.246 60.701Z" fill="#182844"/>
<path d="M519.499 57.491C529.294 57.491 537.234 49.5509 537.234 39.7563C537.234 29.9616 529.294 22.0215 519.499 22.0215C509.705 22.0215 501.765 29.9616 501.765 39.7563C501.765 49.5509 509.705 57.491 519.499 57.491Z" fill="#182844"/>
<path d="M542.907 63.7225C552.701 63.7225 560.641 55.7824 560.641 45.9877C560.641 36.1931 552.701 28.2529 542.907 28.2529C533.112 28.2529 525.172 36.1931 525.172 45.9877C525.172 55.7824 533.112 63.7225 542.907 63.7225Z" fill="#182844"/>
<path d="M558.925 80.7117C568.72 80.7117 576.66 72.7716 576.66 62.977C576.66 53.1823 568.72 45.2422 558.925 45.2422C549.131 45.2422 541.19 53.1823 541.19 62.977C541.19 72.7716 549.131 80.7117 558.925 80.7117Z" fill="#182844"/>
<path d="M575.983 103.883C585.777 103.883 593.718 95.9425 593.718 86.1479C593.718 76.3532 585.777 68.4131 575.983 68.4131C566.188 68.4131 558.248 76.3532 558.248 86.1479C558.248 95.9425 566.188 103.883 575.983 103.883Z" fill="#182844"/>
<path d="M578.405 130.514C588.199 130.514 596.139 122.574 596.139 112.78C596.139 102.985 588.199 95.0449 578.405 95.0449C568.61 95.0449 560.67 102.985 560.67 112.78C560.67 122.574 568.61 130.514 578.405 130.514Z" fill="#182844"/>
<path d="M411.774 90.0438C421.568 90.0438 429.509 82.1036 429.509 72.309C429.509 62.5143 421.568 54.5742 411.774 54.5742C401.979 54.5742 394.039 62.5143 394.039 72.309C394.039 82.1036 401.979 90.0438 411.774 90.0438Z" fill="#182844"/>
<path d="M516.156 322.283C516.156 336.011 499.599 446.655 488.545 519.015C486.843 530.129 470.869 530.129 469.131 519.015C458.083 446.655 441.52 336.011 441.52 322.283C441.52 317.382 442.485 312.53 444.36 308.002C446.236 303.474 448.984 299.36 452.45 295.895C455.915 292.43 460.029 289.681 464.557 287.806C469.084 285.93 473.937 284.965 478.838 284.965C483.738 284.965 488.591 285.93 493.119 287.806C497.646 289.681 501.76 292.43 505.226 295.895C508.691 299.36 511.44 303.474 513.315 308.002C515.191 312.53 516.156 317.382 516.156 322.283Z" fill="#5B4C40"/>
<path d="M553.195 322.282C553.195 336.011 536.631 446.654 525.577 519.015C523.875 530.128 507.864 530.128 506.17 519.015C495.123 446.654 478.552 336.011 478.552 322.282C478.482 317.337 479.396 312.427 481.24 307.838C483.085 303.249 485.823 299.073 489.296 295.551C492.768 292.029 496.906 289.233 501.468 287.324C506.031 285.416 510.928 284.433 515.873 284.433C520.819 284.433 525.716 285.416 530.278 287.324C534.841 289.233 538.979 292.029 542.451 295.551C545.924 299.073 548.662 303.249 550.506 307.838C552.351 312.427 553.265 317.337 553.195 322.282Z" fill="#5B4C40"/>
<path d="M553.762 223.482L585.748 294.156L524.303 318.925" stroke="#FFDF7A" stroke-width="39.13" stroke-linecap="round" stroke-linejoin="round"/>
<path d="M440.953 223.482L415.927 299.371L358.694 249.37" stroke="#FFDF7A" stroke-width="39.13" stroke-linecap="round" stroke-linejoin="round"/>
<path d="M471.975 538.156H444.334C438.318 538.156 433.441 543.033 433.441 549.049V549.056C433.441 555.072 438.318 559.949 444.334 559.949H471.975C477.991 559.949 482.868 555.072 482.868 549.056V549.049C482.868 543.033 477.991 538.156 471.975 538.156Z" fill="#5B4C40"/>
<path d="M548.084 538.156H520.444C514.428 538.156 509.551 543.033 509.551 549.049V549.056C509.551 555.072 514.428 559.949 520.444 559.949H548.084C554.1 559.949 558.977 555.072 558.977 549.056V549.049C558.977 543.033 554.1 538.156 548.084 538.156Z" fill="#5B4C40"/>
<path d="M535.231 206.247H459.446C455.751 206.247 452.097 207.019 448.719 208.513C445.34 210.007 442.311 212.191 439.826 214.925C437.341 217.658 435.454 220.881 434.287 224.386C433.12 227.892 432.699 231.602 433.05 235.28L441.807 326.863H552.87L561.619 235.309C561.975 231.63 561.557 227.917 560.392 224.408C559.228 220.9 557.342 217.674 554.858 214.937C552.373 212.201 549.343 210.014 545.963 208.517C542.583 207.021 538.927 206.247 535.231 206.247Z" fill="#FFDF7A"/>
<path d="M500.568 322.413L504.581 331.421C505.033 332.438 505.28 333.534 505.309 334.647C505.337 335.76 505.146 336.868 504.746 337.907C504.347 338.946 503.746 339.896 502.979 340.703C502.213 341.51 501.294 342.158 500.277 342.61L480.363 351.48C477.116 352.927 473.427 353.024 470.108 351.751C466.788 350.477 464.111 347.938 462.665 344.69C461.218 341.443 461.121 337.754 462.394 334.435C463.668 331.115 466.207 328.438 469.455 326.992L489.369 318.121C491.423 317.206 493.756 317.145 495.855 317.95C497.954 318.756 499.647 320.362 500.562 322.416L500.568 322.413Z" fill="#B26C50"/>
<path d="M495.729 319.713L493.855 327.995C493.82 328.15 493.755 328.296 493.663 328.426C493.571 328.555 493.455 328.665 493.321 328.75C493.187 328.835 493.038 328.892 492.881 328.919C492.725 328.946 492.565 328.941 492.41 328.906L477.634 325.563C476.222 325.244 474.995 324.376 474.223 323.152C473.451 321.928 473.196 320.447 473.516 319.036C473.835 317.624 474.702 316.397 475.926 315.625C477.15 314.852 478.631 314.598 480.043 314.917L494.819 318.261C494.974 318.296 495.121 318.361 495.251 318.453C495.381 318.546 495.491 318.662 495.576 318.797C495.66 318.932 495.718 319.083 495.744 319.24C495.77 319.397 495.765 319.557 495.729 319.713Z" fill="#B26C50"/>
<defs>
<linearGradient id="paint0_linear" x1="83.6441" y1="465.369" x2="138.483" y2="465.369" gradientUnits="userSpaceOnUse">
<stop stop-color="#B6F5E9"/>
<stop offset="1" stop-color="#69A8C9"/>
</linearGradient>
<linearGradient id="paint1_linear" x1="-742082" y1="45394.7" x2="-746167" y2="45394.7" gradientUnits="userSpaceOnUse">
<stop stop-color="#B6F5E9"/>
<stop offset="1" stop-color="#69A8C9"/>
</linearGradient>
<linearGradient id="paint2_linear" x1="60244.6" y1="83050" x2="75304.1" y2="83050" gradientUnits="userSpaceOnUse">
<stop stop-color="#B6F5E9"/>
<stop offset="1" stop-color="#69A8C9"/>
</linearGradient>
<linearGradient id="paint3_linear" x1="70434.8" y1="23219.8" x2="92095.5" y2="23219.8" gradientUnits="userSpaceOnUse">
<stop stop-color="#B6F5E9"/>
<stop offset="1" stop-color="#69A8C9"/>
</linearGradient>
<linearGradient id="paint4_linear" x1="-811072" y1="741811" x2="-817316" y2="746331" gradientUnits="userSpaceOnUse">
<stop stop-color="#B6F5E9"/>
<stop offset="1" stop-color="#69A8C9"/>
</linearGradient>
<linearGradient id="paint5_linear" x1="-1.05793e+06" y1="109135" x2="-1.06417e+06" y2="104615" gradientUnits="userSpaceOnUse">
<stop stop-color="#B6F5E9"/>
<stop offset="1" stop-color="#69A8C9"/>
</linearGradient>
<linearGradient id="paint6_linear" x1="44654.2" y1="42927.8" x2="52362.6" y2="42927.8" gradientUnits="userSpaceOnUse">
<stop stop-color="#B6F5E9"/>
<stop offset="1" stop-color="#69A8C9"/>
</linearGradient>
<linearGradient id="paint7_linear" x1="-530242" y1="-325402" x2="-527860" y2="-332733" gradientUnits="userSpaceOnUse">
<stop stop-color="#B6F5E9"/>
<stop offset="1" stop-color="#69A8C9"/>
</linearGradient>
<linearGradient id="paint8_linear" x1="-128124" y1="703514" x2="-125742" y2="710846" gradientUnits="userSpaceOnUse">
<stop stop-color="#B6F5E9"/>
<stop offset="1" stop-color="#69A8C9"/>
</linearGradient>
<linearGradient id="paint9_linear" x1="369.404" y1="390.73" x2="480.018" y2="390.73" gradientUnits="userSpaceOnUse">
<stop stop-color="#A0B6F2"/>
<stop offset="1" stop-color="#8C69C9"/>
</linearGradient>
<linearGradient id="paint10_linear" x1="368366" y1="147114" x2="667100" y2="147114" gradientUnits="userSpaceOnUse">
<stop stop-color="#A0B6F2"/>
<stop offset="1" stop-color="#8C69C9"/>
</linearGradient>
<linearGradient id="paint11_linear" x1="202.036" y1="200.347" x2="642.518" y2="200.347" gradientUnits="userSpaceOnUse">
<stop stop-color="#8C69C9"/>
<stop offset="1" stop-color="#A0B6F2"/>
</linearGradient>
<linearGradient id="paint12_linear" x1="233388" y1="42064.9" x2="315618" y2="42064.9" gradientUnits="userSpaceOnUse">
<stop stop-color="#A0B6F2"/>
<stop offset="1" stop-color="#8C69C9"/>
</linearGradient>
<linearGradient id="paint13_linear" x1="-3.51573e+06" y1="45113.5" x2="-3.4335e+06" y2="45113.5" gradientUnits="userSpaceOnUse">
<stop stop-color="#A0B6F2"/>
<stop offset="1" stop-color="#8C69C9"/>
</linearGradient>
</defs>
</svg>
