<svg width="76" height="72" viewBox="0 0 76 72" fill="none" xmlns="http://www.w3.org/2000/svg">
<path fill-rule="evenodd" clip-rule="evenodd" d="M50.744 70.6247C57.6455 74.0785 65.2372 70.6247 69.0331 64.7533C76.9698 60.2634 76.9698 48.5205 71.1035 41.2675C67.9978 37.123 64.202 37.4684 60.7512 39.1953C60.4061 39.1953 60.0611 39.1953 59.716 39.1953C59.0258 27.4524 64.8921 17.7818 70.7584 7.42044C71.1035 7.76582 72.1387 8.1112 72.4838 7.42044C73.174 6.03893 74.2092 4.65742 74.5543 2.93052C74.5543 2.58514 74.5543 1.89439 74.2092 1.54901C74.2092 0.512874 72.8289 -0.177884 71.7937 0.858252C71.4486 1.20363 71.4486 1.54901 71.1035 1.89439C64.5471 6.72969 58.6807 12.9465 54.1947 19.8541C48.6735 24.6894 44.8776 30.9062 43.8424 38.1591C42.117 41.9583 41.4269 46.1028 41.0818 49.5566C40.0466 58.5365 42.4621 66.4802 50.744 70.6247ZM70.7584 54.3919C70.7584 54.7373 69.3781 55.4281 69.0331 55.7734C69.0331 54.3919 67.9978 52.665 67.3077 51.2835C67.3077 50.5928 68.3429 49.5566 68.3429 48.8659C69.3781 50.5928 70.7584 52.3197 70.7584 54.3919C70.7584 54.0466 70.7584 54.0466 70.7584 54.3919ZM68.3429 42.3037C71.7937 45.0667 72.8289 50.9381 72.4838 55.0827C72.4838 56.1188 72.1388 57.155 71.7937 58.1911C71.7937 57.8457 71.7937 57.8457 71.7937 57.5003C72.8289 54.7373 72.8289 51.9743 71.7937 49.2113C71.7937 48.8659 71.7937 48.5205 71.7937 48.1751C71.7937 47.4844 71.4486 46.7936 71.1035 46.1028C70.7584 45.0667 70.4134 44.376 69.7232 43.3398C69.0331 42.3037 67.3077 41.6129 65.9274 41.2675C65.2372 41.6129 64.8921 41.2675 64.5471 41.2675C65.9274 40.9222 66.9626 41.2675 68.3429 42.3037ZM55.9201 66.8256C57.9906 67.1709 60.4061 67.1709 62.1315 66.4802C62.4766 66.4802 63.1667 66.4802 63.5118 66.4802H63.8569C62.1315 67.8617 60.061 68.8978 57.6455 68.8978C57.9906 68.5525 57.9906 68.2071 57.3004 68.2071C55.9201 68.2071 54.5398 67.8617 53.5046 67.5163C54.8849 67.1709 55.575 66.8256 55.9201 66.8256ZM52.8144 37.4684C52.8144 38.5045 52.8144 40.2314 53.1595 41.6129C53.1595 41.6129 52.8144 41.6129 52.8144 41.9583C52.8144 40.5768 52.8144 38.8499 52.8144 37.4684ZM44.5326 56.4642C44.8777 56.8096 45.5678 56.4642 45.5678 55.7734C44.8776 53.0104 44.8776 50.2474 45.5678 47.4844C45.5678 48.1751 45.5678 48.8659 45.5678 49.5566C45.5678 49.902 45.5678 49.902 45.5678 50.2474C45.2227 51.6289 45.2227 52.665 45.5678 54.0466C45.9129 57.8457 46.603 61.9903 48.3284 64.7533C45.5678 62.681 44.5326 59.5726 44.5326 56.4642C44.5326 56.1188 44.5326 56.4642 44.5326 56.4642Z" fill="#01D8DC"/>
<path fill-rule="evenodd" clip-rule="evenodd" d="M10.0252 70.279C16.9268 73.7328 24.5185 70.279 28.3143 64.4076C36.2511 59.9177 36.2511 48.1748 30.3848 40.9218C27.2791 36.7773 23.4832 37.1227 20.0325 38.8496C19.6874 38.8496 19.3423 38.8496 18.9972 38.8496C18.3071 27.1067 24.1734 17.4361 30.0397 7.07474C30.3848 7.42012 31.42 7.7655 31.7651 7.07474C32.4552 5.69323 33.4905 4.31171 33.8356 2.58482C33.8356 2.23944 33.8355 1.54868 33.4905 1.20331C33.4905 0.16717 32.1102 -0.523587 31.0749 0.512549C30.7299 0.857928 30.7299 1.20331 30.3848 1.54868C23.8283 6.38398 17.962 12.6008 13.476 19.8537C7.95476 24.689 4.15891 30.9059 3.12368 38.1588C1.39829 41.958 0.708138 46.1025 0.363061 49.5563C-1.01725 58.1908 1.39829 66.1345 10.0252 70.279ZM29.3495 53.7009C29.3495 54.0462 28.3143 54.737 27.9692 55.0824C27.9692 53.7008 26.934 51.974 26.2438 50.5924C26.2438 49.9017 26.934 48.8656 26.934 48.1748C27.9692 49.9017 29.3495 51.974 29.3495 53.7009ZM27.2791 41.958C30.7299 44.721 31.7651 50.5924 31.42 54.737C31.42 55.7731 31.0749 56.8093 30.7299 57.8454C30.7299 57.5 30.7299 57.5 30.7299 57.1546C31.7651 54.3916 31.7651 51.6286 30.7299 48.8655C30.7299 48.5202 30.7299 48.1748 30.7299 47.8294C30.7299 47.1387 30.3848 46.4479 30.0397 45.7571C29.6946 44.721 29.3495 44.0303 28.6594 42.9941C27.9692 41.958 26.2439 41.2672 24.8635 40.9218C24.5185 40.5765 24.1734 40.5765 23.8283 40.2311C24.8635 40.5765 26.2438 40.9218 27.2791 41.958ZM15.2014 66.1345C17.2718 66.4799 19.6874 66.4799 21.4128 65.7891C21.7578 65.7891 22.448 65.7891 22.7931 65.7891H23.1382C21.4128 67.1706 19.3423 68.2067 16.9268 68.2067C17.2718 67.8614 17.2718 67.516 16.5817 67.516C15.2014 67.516 13.8211 67.1706 12.7858 66.8252C13.8211 66.4799 14.5112 66.4799 15.2014 66.1345ZM12.0957 37.1227C12.0957 37.1227 12.0957 36.7773 12.0957 37.1227C12.0957 38.1588 12.0957 39.8857 12.4408 41.2672C12.4408 41.2672 12.0957 41.2672 12.0957 41.6126C11.7506 39.8857 11.7506 38.5042 12.0957 37.1227ZM3.46876 56.1185C3.81383 56.4639 4.50399 56.1185 4.50399 55.4277C3.81383 52.6647 3.81383 49.9017 4.50399 47.1387C4.50399 47.8294 4.50399 48.5202 4.50399 49.2109C4.50399 49.5563 4.50399 49.5563 4.50399 49.9017C4.15891 51.2832 4.15891 52.3193 4.50399 53.7009C4.84906 57.5 5.53922 61.6446 7.2646 64.4076C4.50399 61.9899 3.46876 58.8815 3.46876 56.1185C3.46876 55.7731 3.46876 55.7731 3.46876 56.1185Z" fill="#01D8DC"/>
</svg>
