<svg width="147" height="200" viewBox="0 0 147 200" fill="none" xmlns="http://www.w3.org/2000/svg">
<path d="M113.582 64.5005C108.094 64.5005 103.645 60.0515 103.645 54.5632C103.645 49.075 108.094 44.626 113.582 44.626C119.07 44.626 123.52 49.075 123.52 54.5632C123.52 60.0515 119.07 64.5005 113.582 64.5005Z" fill="#182844"/>
<path d="M113.797 62.6021C108.309 62.6021 103.86 58.153 103.86 52.6648C103.86 47.1766 108.309 42.7275 113.797 42.7275C119.285 42.7275 123.734 47.1766 123.734 52.6648C123.734 58.153 119.285 62.6021 113.797 62.6021Z" fill="#182844"/>
<path d="M9.9377 71.8218C4.4495 71.8218 0.000452042 67.3727 0.000452042 61.8845C0.000452042 56.3963 4.4495 51.9473 9.9377 51.9473C15.4259 51.9473 19.875 56.3963 19.875 61.8845C19.875 67.3727 15.4259 71.8218 9.9377 71.8218Z" fill="#182844"/>
<path d="M9.9377 81.7632C4.4495 81.7632 0.000452042 77.3141 0.000452042 71.8259C0.000452042 66.3377 4.4495 61.8887 9.9377 61.8887C15.4259 61.8887 19.875 66.3377 19.875 71.8259C19.875 77.3141 15.4259 81.7632 9.9377 81.7632Z" fill="#182844"/>
<path d="M21.5237 95.9155C16.0355 95.9155 11.5864 91.4665 11.5864 85.9783C11.5864 80.4901 16.0355 76.041 21.5237 76.041C27.0119 76.041 31.4609 80.4901 31.4609 85.9783C31.4609 91.4665 27.0119 95.9155 21.5237 95.9155Z" fill="#182844"/>
<path d="M104.793 91.7017C99.305 91.7017 94.8559 87.2526 94.8559 81.7644C94.8559 76.2762 99.305 71.8271 104.793 71.8271C110.281 71.8271 114.73 76.2762 114.73 81.7644C114.73 87.2526 110.281 91.7017 104.793 91.7017Z" fill="#182844"/>
<path d="M111.395 78.1773C105.907 78.1773 101.457 73.7282 101.457 68.24C101.457 62.7518 105.907 58.3027 111.395 58.3027C116.883 58.3027 121.332 62.7518 121.332 68.24C121.332 73.7282 116.883 78.1773 111.395 78.1773Z" fill="#182844"/>
<path d="M9.93609 62.7274C9.93609 91.8831 33.5743 95.9149 62.7299 95.9149C91.8855 95.9149 115.52 91.8831 115.52 62.7274C115.396 48.807 109.78 35.4986 99.8933 25.6987C90.0063 15.8987 76.6488 10.4004 62.7278 10.4004C48.8069 10.4004 35.4494 15.8987 25.5624 25.6987C15.6754 35.4986 10.0592 48.807 9.93609 62.7274Z" fill="#182844"/>
<path d="M105.582 37.3032C100.094 37.3032 95.645 32.8542 95.645 27.366C95.645 21.8778 100.094 17.4287 105.582 17.4287C111.07 17.4287 115.52 21.8778 115.52 27.366C115.52 32.8542 111.07 37.3032 105.582 37.3032Z" fill="#182844"/>
<path d="M93.2463 32.2144C87.7581 32.2144 83.309 27.7653 83.309 22.2771C83.309 16.7889 87.7581 12.3398 93.2463 12.3398C98.7345 12.3398 103.184 16.7889 103.184 22.2771C103.184 27.7653 98.7345 32.2144 93.2463 32.2144Z" fill="#182844"/>
<path d="M83.4612 22.2759C77.973 22.2759 73.5239 17.8268 73.5239 12.3386C73.5239 6.85043 77.973 2.40137 83.4612 2.40137C88.9494 2.40137 93.3984 6.85043 93.3984 12.3386C93.3984 17.8268 88.9494 22.2759 83.4612 22.2759Z" fill="#182844"/>
<path d="M73.5237 19.8745C68.0355 19.8745 63.5864 15.4255 63.5864 9.93727C63.5864 4.44907 68.0355 0 73.5237 0C79.0119 0 83.4609 4.44907 83.4609 9.93727C83.4609 15.4255 79.0119 19.8745 73.5237 19.8745Z" fill="#182844"/>
<path d="M60.9533 19.8745C55.4651 19.8745 51.0161 15.4255 51.0161 9.93727C51.0161 4.44907 55.4651 0 60.9533 0C66.4415 0 70.8906 4.44907 70.8906 9.93727C70.8906 15.4255 66.4415 19.8745 60.9533 19.8745Z" fill="#182844"/>
<path d="M47.2424 22.2759C41.7542 22.2759 37.3052 17.8268 37.3052 12.3386C37.3052 6.85043 41.7542 2.40137 47.2424 2.40137C52.7306 2.40137 57.1797 6.85043 57.1797 12.3386C57.1797 17.8268 52.7306 22.2759 47.2424 22.2759Z" fill="#182844"/>
<path d="M31.4612 25.7642C25.973 25.7642 21.5239 21.3151 21.5239 15.8269C21.5239 10.3387 25.973 5.88965 31.4612 5.88965C36.9494 5.88965 41.3984 10.3387 41.3984 15.8269C41.3984 21.3151 36.9494 25.7642 31.4612 25.7642Z" fill="#182844"/>
<path d="M25.6604 34.0122C20.1722 34.0122 15.7231 29.5632 15.7231 24.075C15.7231 18.5868 20.1722 14.1377 25.6604 14.1377C31.1486 14.1377 35.5977 18.5868 35.5977 24.075C35.5977 29.5632 31.1486 34.0122 25.6604 34.0122Z" fill="#182844"/>
<path d="M17.4846 43.9546C11.9964 43.9546 7.54738 39.5055 7.54738 34.0173C7.54738 28.5291 11.9964 24.0801 17.4846 24.0801C22.9728 24.0801 27.4219 28.5291 27.4219 34.0173C27.4219 39.5055 22.9728 43.9546 17.4846 43.9546Z" fill="#182844"/>
<path d="M15.7268 50.6851C10.2386 50.6851 5.78957 46.236 5.78957 40.7478C5.78957 35.2596 10.2386 30.8105 15.7268 30.8105C21.215 30.8105 25.6641 35.2596 25.6641 40.7478C25.6641 46.236 21.215 50.6851 15.7268 50.6851Z" fill="#182844"/>
<path d="M12.3284 60.8374C6.84018 60.8374 2.39113 56.3884 2.39113 50.9002C2.39113 45.412 6.84018 40.9629 12.3284 40.9629C17.8166 40.9629 22.2656 45.412 22.2656 50.9002C22.2656 56.3884 17.8166 60.8374 12.3284 60.8374Z" fill="#182844"/>
<path d="M104.24 81.063C99.0093 81.063 94.769 76.8227 94.769 71.592C94.769 66.3614 99.0093 62.1211 104.24 62.1211C109.471 62.1211 113.711 66.3614 113.711 71.592C113.711 76.8227 109.471 81.063 104.24 81.063Z" fill="#B26C50"/>
<path d="M21.4627 81.063C16.232 81.063 11.9917 76.8227 11.9917 71.592C11.9917 66.3614 16.232 62.1211 21.4627 62.1211C26.6933 62.1211 30.9336 66.3614 30.9336 71.592C30.9336 76.8227 26.6933 81.063 21.4627 81.063Z" fill="#B26C50"/>
<path d="M62.8537 112.669C37.7237 112.669 17.352 92.2968 17.352 67.1668C17.352 42.0369 37.7237 21.665 62.8537 21.665C87.9836 21.665 108.355 42.0369 108.355 67.1668C108.355 92.2968 87.9836 112.669 62.8537 112.669Z" fill="#B26C50"/>
<path d="M17.3484 67.1879C17.3493 55.1611 22.1113 43.6237 30.5935 35.0974C39.0757 26.5711 50.5883 21.7494 62.615 21.6862C87.4705 21.5582 108.051 41.767 108.352 66.6184C108.481 76.9828 105.068 87.0807 98.6786 95.242C92.2889 103.403 83.305 109.139 73.2125 111.501C72.7849 111.605 72.4049 111.85 72.1344 112.197C71.8639 112.544 71.7188 112.972 71.7228 113.412C71.7265 113.909 71.9168 114.387 72.2561 114.751C72.5955 115.115 73.059 115.338 73.555 115.376C78.5594 115.838 83.2111 118.152 86.5988 121.864C89.9865 125.576 91.8662 130.419 91.8696 135.445C91.8702 138.094 91.3489 140.716 90.3357 143.164C89.3224 145.611 87.8369 147.835 85.9642 149.708C84.0914 151.581 81.868 153.067 79.4209 154.081C76.9738 155.095 74.3509 155.616 71.7021 155.616H53.957C48.6071 155.616 43.4764 153.491 39.6935 149.708C35.9106 145.925 33.7853 140.795 33.7853 135.445C33.7851 130.413 35.6658 125.563 39.0583 121.847C42.4507 118.131 47.1097 115.817 52.1206 115.36C52.617 115.322 53.081 115.099 53.421 114.735C53.761 114.371 53.9523 113.893 53.957 113.395C53.9588 112.954 53.8114 112.525 53.5387 112.178C53.266 111.832 52.884 111.587 52.4548 111.485C42.467 109.139 33.5648 103.487 27.1923 95.4462C20.8199 87.4055 17.351 77.4476 17.3484 67.1879Z" fill="#B26C50"/>
<path d="M70.7529 91.2348C68.2397 91.2348 65.0043 87.2112 62.553 89.6625C60.1017 92.1138 62.9905 99.1953 70.7529 99.1953C78.5154 99.1953 82.539 92.023 79.4893 89.4726C76.4396 86.9223 73.7902 91.2348 70.7529 91.2348Z" fill="#934B3E"/>
<path d="M91.094 90.5495C82.6589 90.5495 75.8208 82.651 75.8208 72.9076C75.8208 63.1642 82.6589 55.2656 91.094 55.2656C99.5291 55.2656 106.367 63.1642 106.367 72.9076C106.367 82.651 99.5291 90.5495 91.094 90.5495Z" fill="white"/>
<path d="M86.4857 84.364C81.0089 84.364 76.5691 79.235 76.5691 72.9081C76.5691 66.5811 81.0089 61.4521 86.4857 61.4521C91.9625 61.4521 96.4023 66.5811 96.4023 72.9081C96.4023 79.235 91.9625 84.364 86.4857 84.364Z" fill="#182844"/>
<path d="M78.9793 66.9176C78.2066 66.2677 78.3272 64.8529 79.2485 63.7575C80.1699 62.6622 81.5432 62.3012 82.3159 62.9511C83.0885 63.6011 82.9679 65.0159 82.0466 66.1112C81.1252 67.2065 79.7519 67.5676 78.9793 66.9176Z" fill="white"/>
<path d="M50.4221 90.5495C41.987 90.5495 35.149 82.651 35.149 72.9076C35.149 63.1642 41.987 55.2656 50.4221 55.2656C58.8573 55.2656 65.6953 63.1642 65.6953 72.9076C65.6953 82.651 58.8573 90.5495 50.4221 90.5495Z" fill="white"/>
<path d="M55.0287 84.364C49.5519 84.364 45.112 79.235 45.112 72.9081C45.112 66.5811 49.5519 61.4521 55.0287 61.4521C60.5055 61.4521 64.9453 66.5811 64.9453 72.9081C64.9453 79.235 60.5055 84.364 55.0287 84.364Z" fill="#182844"/>
<path d="M47.5222 66.9176C46.7496 66.2676 46.8701 64.8529 47.7915 63.7575C48.7129 62.6622 50.0861 62.3011 50.8588 62.9511C51.6314 63.601 51.5109 65.0159 50.5895 66.1112C49.6682 67.2065 48.2949 67.5675 47.5222 66.9176Z" fill="white"/>
<path d="M61.8198 46.9219C61.0623 46.5797 60.2767 46.3035 59.4717 46.0965C58.7426 45.9087 58.0043 45.7585 57.2598 45.6467C56.9007 45.593 56.55 45.56 56.1951 45.5187C55.8402 45.4775 55.5018 45.4734 55.151 45.4486C54.4747 45.4115 53.7969 45.4115 53.1206 45.4486C50.5546 45.5767 48.0283 46.1347 45.647 47.0993C43.258 48.0451 41.0411 49.378 39.0854 51.0445C38.568 51.4837 38.0748 51.9507 37.6081 52.4435C37.1294 52.9345 36.663 53.471 36.2091 54.0323C35.74 54.6192 35.3046 55.2324 34.905 55.8687C34.4575 56.5652 34.0696 57.2982 33.7454 58.06L33.9971 58.6955C35.1939 58.3035 36.3783 57.8702 37.5668 57.4575L41.1117 56.1534C43.4722 55.2786 45.8079 54.3459 48.1602 53.4463C50.5125 52.5466 52.8317 51.5686 55.151 50.5905L58.6257 49.1132C59.7729 48.5973 60.9326 48.1021 62.0716 47.5656L61.8198 46.9219ZM108.613 58.4809C108.313 57.7079 107.948 56.9611 107.524 56.2483C107.144 55.5999 106.731 54.9718 106.286 54.3665C106.067 54.0777 105.84 53.8053 105.621 53.5412C105.403 53.2771 105.163 53.0171 104.932 52.753C104.482 52.2452 104.004 51.763 103.5 51.3086C101.598 49.5839 99.4204 48.1891 97.0583 47.1818C94.7011 46.1604 92.1912 45.5357 89.6301 45.333C88.9536 45.2762 88.2744 45.2569 87.5957 45.2753C86.9065 45.2753 86.2008 45.333 85.4828 45.4073C84.7365 45.4948 83.9954 45.6215 83.2626 45.787C82.453 45.9635 81.6593 46.2064 80.8897 46.5133L80.6214 47.1406C81.7439 47.7101 82.887 48.2424 84.0177 48.7913L87.4471 50.376C89.7333 51.4283 92.0484 52.4393 94.3471 53.4463C96.6457 54.4532 98.9773 55.423 101.309 56.3722L104.813 57.7835C105.989 58.2292 107.157 58.6996 108.341 59.1247L108.613 58.4809Z" fill="#934B3E"/>
<path d="M95.7463 40.5112C90.2581 40.5112 85.809 36.0622 85.809 30.574C85.809 25.0858 90.2581 20.6367 95.7463 20.6367C101.235 20.6367 105.684 25.0858 105.684 30.574C105.684 36.0622 101.235 40.5112 95.7463 40.5112Z" fill="#182844"/>
<path d="M80.5823 32.2144C75.0941 32.2144 70.645 27.7653 70.645 22.2771C70.645 16.7889 75.0941 12.3398 80.5823 12.3398C86.0705 12.3398 90.5195 16.7889 90.5195 22.2771C90.5195 27.7653 86.0705 32.2144 80.5823 32.2144Z" fill="#182844"/>
<path d="M62.3518 34.0122C56.8636 34.0122 52.4145 29.5632 52.4145 24.075C52.4145 18.5868 56.8636 14.1377 62.3518 14.1377C67.84 14.1377 72.2891 18.5868 72.2891 24.075C72.2891 29.5632 67.84 34.0122 62.3518 34.0122Z" fill="#182844"/>
<path d="M50.4456 32.2144C44.9574 32.2144 40.5083 27.7653 40.5083 22.2771C40.5083 16.7889 44.9574 12.3398 50.4456 12.3398C55.9338 12.3398 60.3828 16.7889 60.3828 22.2771C60.3828 27.7653 55.9338 32.2144 50.4456 32.2144Z" fill="#182844"/>
<path d="M37.3283 35.7056C31.8401 35.7056 27.3911 31.2565 27.3911 25.7683C27.3911 20.2801 31.8401 15.8311 37.3283 15.8311C42.8165 15.8311 47.2656 20.2801 47.2656 25.7683C47.2656 31.2565 42.8165 35.7056 37.3283 35.7056Z" fill="#182844"/>
<path d="M28.3518 45.2241C22.8636 45.2241 18.4145 40.7751 18.4145 35.2869C18.4145 29.7987 22.8636 25.3496 28.3518 25.3496C33.84 25.3496 38.2891 29.7987 38.2891 35.2869C38.2891 40.7751 33.84 45.2241 28.3518 45.2241Z" fill="#182844"/>
<path d="M18.7932 58.2085C13.305 58.2085 8.85592 53.7595 8.85592 48.2713C8.85592 42.7831 13.305 38.334 18.7932 38.334C24.2814 38.334 28.7305 42.7831 28.7305 48.2713C28.7305 53.7595 24.2814 58.2085 18.7932 58.2085Z" fill="#182844"/>
<path d="M17.4378 73.1314C11.9496 73.1314 7.5005 68.6823 7.5005 63.1941C7.5005 57.7059 11.9496 53.2568 17.4378 53.2568C22.926 53.2568 27.375 57.7059 27.375 63.1941C27.375 68.6823 22.926 73.1314 17.4378 73.1314Z" fill="#182844"/>
<path d="M110.805 50.4536C105.317 50.4536 100.868 46.0046 100.868 40.5164C100.868 35.0282 105.317 30.5791 110.805 30.5791C116.293 30.5791 120.742 35.0282 120.742 40.5164C120.742 46.0046 116.293 50.4536 110.805 50.4536Z" fill="#182844"/>
<path d="M31.2468 125.224L13.3243 164.824L47.7539 178.702" stroke="#FFDF7A" stroke-width="12.7501" stroke-linecap="round" stroke-linejoin="round"/>
<path d="M94.455 125.224L108.478 167.746L140.547 139.729" stroke="#FFDF7A" stroke-width="12.7501" stroke-linecap="round" stroke-linejoin="round"/>
<path d="M41.6272 115.565H84.0917C86.1618 115.565 88.209 115.998 90.1022 116.835C91.9953 117.672 93.6926 118.896 95.0852 120.428C96.4777 121.959 97.5348 123.765 98.1887 125.729C98.8425 127.693 99.0787 129.772 98.882 131.833L93.9753 183.15H31.7436L26.841 131.85C26.6419 129.788 26.8761 127.707 27.5286 125.742C28.1811 123.776 29.2374 121.968 30.6298 120.435C32.0222 118.901 33.7198 117.676 35.6137 116.837C37.5076 115.999 39.556 115.566 41.6272 115.565Z" fill="#FFDF7A"/>
<path d="M61.0517 180.656L58.8032 185.704C58.5499 186.274 58.4114 186.888 58.3955 187.512C58.3796 188.135 58.4867 188.756 58.7106 189.338C58.9346 189.92 59.271 190.453 59.7007 190.905C60.1304 191.357 60.6449 191.72 61.2149 191.974L72.3732 196.944C74.1928 197.754 76.2599 197.809 78.1197 197.095C79.9795 196.382 81.4796 194.959 82.2902 193.139C83.1007 191.319 83.1552 189.252 82.4417 187.393C81.7281 185.533 80.305 184.033 78.4854 183.222L67.3271 178.252C66.1763 177.739 64.8691 177.705 63.6929 178.156C62.5168 178.607 61.568 179.507 61.0554 180.658L61.0517 180.656Z" fill="#B26C50"/>
<path d="M63.7636 179.143L64.8137 183.783C64.8333 183.87 64.8698 183.952 64.9211 184.025C64.9724 184.097 65.0375 184.159 65.1126 184.206C65.1878 184.254 65.2716 184.286 65.3592 184.301C65.4468 184.316 65.5365 184.314 65.6232 184.294L73.9026 182.421C74.6936 182.242 75.3812 181.756 75.8139 181.07C76.2467 180.384 76.3892 179.554 76.2103 178.763C76.0313 177.972 75.5454 177.285 74.8595 176.852C74.1736 176.419 73.3439 176.277 72.5529 176.456L64.2734 178.329C64.1864 178.349 64.1041 178.386 64.0313 178.437C63.9585 178.489 63.8967 178.554 63.8493 178.63C63.8019 178.705 63.7699 178.79 63.7552 178.878C63.7405 178.966 63.7433 179.056 63.7636 179.143Z" fill="#B26C50"/>
</svg>
