<svg width="138" height="26" viewBox="0 0 138 26" fill="none" xmlns="http://www.w3.org/2000/svg">
<g clip-path="url(#clip0)">
<path d="M15 5L18.09 11.26L25 12.27L20 17.14L21.18 24.02L15 20.77L8.82 24.02L10 17.14L5 12.27L11.91 11.26L15 5Z" fill="#FFD53F" stroke="#FFD53F" stroke-width="2" stroke-linecap="round" stroke-linejoin="round"/>
<path d="M42 5L45.09 11.26L52 12.27L47 17.14L48.18 24.02L42 20.77L35.82 24.02L37 17.14L32 12.27L38.91 11.26L42 5Z" fill="#FFD53F" stroke="#FFD53F" stroke-width="2" stroke-linecap="round" stroke-linejoin="round"/>
<path d="M69 5L72.09 11.26L79 12.27L74 17.14L75.18 24.02L69 20.77L62.82 24.02L64 17.14L59 12.27L65.91 11.26L69 5Z" fill="#FFD53F" stroke="#FFD53F" stroke-width="2" stroke-linecap="round" stroke-linejoin="round"/>
<path d="M96 5L99.09 11.26L106 12.27L101 17.14L102.18 24.02L96 20.77L89.82 24.02L91 17.14L86 12.27L92.91 11.26L96 5Z" fill="#FFD53F" stroke="#FFD53F" stroke-width="2" stroke-linecap="round" stroke-linejoin="round"/>
<path d="M123 5L126.09 11.26L133 12.27L128 17.14L129.18 24.02L123 20.77L116.82 24.02L118 17.14L113 12.27L119.91 11.26L123 5Z" fill="#FFD53F" stroke="#FFD53F" stroke-width="2" stroke-linecap="round" stroke-linejoin="round"/>
</g>
<defs>
<clipPath id="clip0">
<rect width="138" height="26" fill="white"/>
</clipPath>
</defs>
</svg>
